<mxfile host="app.diagrams.net" modified="2020-10-27T12:23:07.002Z" agent="5.0 (Windows)" etag="Q4vCgw412N9twVfE0dV3" version="13.8.3" type="github">
  <diagram id="lOqkCvenDMRQcAnMG-PU" name="Page-1">
    <mxGraphModel dx="4654" dy="2059" grid="1" gridSize="10" guides="1" tooltips="1" connect="1" arrows="1" fold="1" page="1" pageScale="1" pageWidth="827" pageHeight="1169" math="0" shadow="0">
      <root>
        <mxCell id="0" />
        <mxCell id="1" parent="0" />
        <mxCell id="Sd4QSS0tqCg5DmefgEI3-3" style="edgeStyle=orthogonalEdgeStyle;rounded=0;orthogonalLoop=1;jettySize=auto;html=1;exitX=1;exitY=0.5;exitDx=0;exitDy=0;entryX=0;entryY=0.5;entryDx=0;entryDy=0;" edge="1" parent="1" source="Sd4QSS0tqCg5DmefgEI3-1" target="Sd4QSS0tqCg5DmefgEI3-2">
          <mxGeometry relative="1" as="geometry" />
        </mxCell>
        <mxCell id="Sd4QSS0tqCg5DmefgEI3-1" value="&lt;div&gt;timer&lt;/div&gt;&lt;div&gt;5sec&lt;br&gt;&lt;/div&gt;" style="rounded=0;whiteSpace=wrap;html=1;fillColor=#dae8fc;strokeColor=#6c8ebf;" vertex="1" parent="1">
          <mxGeometry x="389" y="315" width="50" height="50" as="geometry" />
        </mxCell>
        <mxCell id="Sd4QSS0tqCg5DmefgEI3-2" value="&lt;div&gt;VPOp61410223&lt;/div&gt;&lt;div&gt;Cond.auto, Silo, Filling valve&lt;br&gt;&lt;/div&gt;" style="rounded=1;whiteSpace=wrap;html=1;fillColor=#d5e8d4;strokeColor=#82b366;" vertex="1" parent="1">
          <mxGeometry x="470" y="315" width="120" height="50" as="geometry" />
        </mxCell>
        <mxCell id="Sd4QSS0tqCg5DmefgEI3-5" style="edgeStyle=orthogonalEdgeStyle;rounded=0;orthogonalLoop=1;jettySize=auto;html=1;exitX=1;exitY=0.5;exitDx=0;exitDy=0;" edge="1" parent="1" source="Sd4QSS0tqCg5DmefgEI3-4" target="Sd4QSS0tqCg5DmefgEI3-1">
          <mxGeometry relative="1" as="geometry" />
        </mxCell>
        <mxCell id="Sd4QSS0tqCg5DmefgEI3-4" value="&lt;div&gt;014377&lt;/div&gt;&lt;div&gt;OkEmptyPressure_6141_o&lt;br&gt;&lt;/div&gt;" style="rounded=0;whiteSpace=wrap;html=1;fillColor=#d5e8d4;strokeColor=#82b366;" vertex="1" parent="1">
          <mxGeometry x="240" y="315" width="120" height="50" as="geometry" />
        </mxCell>
        <mxCell id="Sd4QSS0tqCg5DmefgEI3-8" style="edgeStyle=orthogonalEdgeStyle;rounded=0;orthogonalLoop=1;jettySize=auto;html=1;exitX=1;exitY=0.5;exitDx=0;exitDy=0;entryX=0;entryY=0.5;entryDx=0;entryDy=0;" edge="1" parent="1" source="Sd4QSS0tqCg5DmefgEI3-7" target="Sd4QSS0tqCg5DmefgEI3-4">
          <mxGeometry relative="1" as="geometry" />
        </mxCell>
        <mxCell id="Sd4QSS0tqCg5DmefgEI3-7" value="&lt;div&gt;014387&lt;/div&gt;&lt;div&gt;Help_61410223&lt;br&gt;&lt;/div&gt;" style="rounded=0;whiteSpace=wrap;html=1;fillColor=#f8cecc;strokeColor=#b85450;" vertex="1" parent="1">
          <mxGeometry x="80" y="315" width="120" height="50" as="geometry" />
        </mxCell>
        <mxCell id="Sd4QSS0tqCg5DmefgEI3-10" style="edgeStyle=orthogonalEdgeStyle;rounded=0;orthogonalLoop=1;jettySize=auto;html=1;exitX=1;exitY=0.5;exitDx=0;exitDy=0;entryX=0;entryY=0.5;entryDx=0;entryDy=0;" edge="1" parent="1" source="Sd4QSS0tqCg5DmefgEI3-9" target="Sd4QSS0tqCg5DmefgEI3-7">
          <mxGeometry relative="1" as="geometry" />
        </mxCell>
        <mxCell id="Sd4QSS0tqCg5DmefgEI3-9" value="&lt;div&gt;010035&lt;/div&gt;&lt;div&gt;MCSt61410402&lt;/div&gt;&lt;div&gt;Start, Blower room, compressed air&lt;br&gt;&lt;/div&gt;" style="rounded=0;whiteSpace=wrap;html=1;fillColor=#d5e8d4;strokeColor=#82b366;" vertex="1" parent="1">
          <mxGeometry x="-70" y="315" width="120" height="50" as="geometry" />
        </mxCell>
        <mxCell id="Sd4QSS0tqCg5DmefgEI3-12" style="edgeStyle=orthogonalEdgeStyle;rounded=0;orthogonalLoop=1;jettySize=auto;html=1;exitX=1;exitY=0.5;exitDx=0;exitDy=0;entryX=0;entryY=0.5;entryDx=0;entryDy=0;" edge="1" parent="1" source="Sd4QSS0tqCg5DmefgEI3-11" target="Sd4QSS0tqCg5DmefgEI3-9">
          <mxGeometry relative="1" as="geometry" />
        </mxCell>
        <mxCell id="Sd4QSS0tqCg5DmefgEI3-11" value="&lt;div&gt;010082&lt;/div&gt;&lt;div&gt;MCSt61410314&lt;/div&gt;&lt;div&gt;Start, screw conveyor&lt;br&gt;&lt;/div&gt;" style="rounded=0;whiteSpace=wrap;html=1;fillColor=#d5e8d4;strokeColor=#82b366;" vertex="1" parent="1">
          <mxGeometry x="-210" y="315" width="120" height="50" as="geometry" />
        </mxCell>
        <mxCell id="Sd4QSS0tqCg5DmefgEI3-14" style="edgeStyle=orthogonalEdgeStyle;rounded=0;orthogonalLoop=1;jettySize=auto;html=1;exitX=1;exitY=0.5;exitDx=0;exitDy=0;" edge="1" parent="1" source="Sd4QSS0tqCg5DmefgEI3-13" target="Sd4QSS0tqCg5DmefgEI3-11">
          <mxGeometry relative="1" as="geometry" />
        </mxCell>
        <mxCell id="Sd4QSS0tqCg5DmefgEI3-13" value="&lt;div&gt;014306&lt;/div&gt;&lt;div&gt;HHLA61410303&lt;/div&gt;&lt;div&gt;Start, screw conveyor&lt;br&gt;&lt;/div&gt;" style="rounded=0;whiteSpace=wrap;html=1;fillColor=#f8cecc;strokeColor=#b85450;" vertex="1" parent="1">
          <mxGeometry x="-350" y="315" width="120" height="50" as="geometry" />
        </mxCell>
        <mxCell id="Sd4QSS0tqCg5DmefgEI3-16" style="edgeStyle=orthogonalEdgeStyle;rounded=0;orthogonalLoop=1;jettySize=auto;html=1;exitX=1;exitY=0.5;exitDx=0;exitDy=0;" edge="1" parent="1" source="Sd4QSS0tqCg5DmefgEI3-15" target="Sd4QSS0tqCg5DmefgEI3-13">
          <mxGeometry relative="1" as="geometry" />
        </mxCell>
        <mxCell id="Sd4QSS0tqCg5DmefgEI3-15" value="&lt;div&gt;014325&lt;/div&gt;&lt;div&gt;AcMill61410300&lt;/div&gt;&lt;div&gt;Select Mill, supply sugar from Silo&lt;br&gt;&lt;/div&gt;" style="rounded=0;whiteSpace=wrap;html=1;fillColor=#d5e8d4;strokeColor=#82b366;" vertex="1" parent="1">
          <mxGeometry x="-500" y="315" width="120" height="50" as="geometry" />
        </mxCell>
        <mxCell id="Sd4QSS0tqCg5DmefgEI3-18" style="edgeStyle=orthogonalEdgeStyle;rounded=0;orthogonalLoop=1;jettySize=auto;html=1;exitX=1;exitY=0.5;exitDx=0;exitDy=0;entryX=0;entryY=0.5;entryDx=0;entryDy=0;" edge="1" parent="1" source="Sd4QSS0tqCg5DmefgEI3-17" target="Sd4QSS0tqCg5DmefgEI3-15">
          <mxGeometry relative="1" as="geometry" />
        </mxCell>
        <mxCell id="Sd4QSS0tqCg5DmefgEI3-17" value="&lt;div&gt;014345&lt;/div&gt;&lt;div&gt;AlSpl61410300&lt;/div&gt;&lt;div&gt;Allowed supply Mill (OK inlet)&lt;br&gt;&lt;/div&gt;" style="rounded=0;whiteSpace=wrap;html=1;fillColor=#d5e8d4;strokeColor=#82b366;" vertex="1" parent="1">
          <mxGeometry x="-650" y="315" width="120" height="50" as="geometry" />
        </mxCell>
        <mxCell id="Sd4QSS0tqCg5DmefgEI3-20" style="edgeStyle=orthogonalEdgeStyle;rounded=0;orthogonalLoop=1;jettySize=auto;html=1;exitX=0.5;exitY=1;exitDx=0;exitDy=0;" edge="1" parent="1" source="Sd4QSS0tqCg5DmefgEI3-19" target="Sd4QSS0tqCg5DmefgEI3-7">
          <mxGeometry relative="1" as="geometry" />
        </mxCell>
        <mxCell id="Sd4QSS0tqCg5DmefgEI3-19" value="&lt;div&gt;014387&lt;/div&gt;&lt;div&gt;Help_61410223&lt;br&gt;&lt;/div&gt;" style="rounded=1;whiteSpace=wrap;html=1;fillColor=#d5e8d4;strokeColor=#82b366;" vertex="1" parent="1">
          <mxGeometry x="80" y="210" width="120" height="50" as="geometry" />
        </mxCell>
        <mxCell id="Sd4QSS0tqCg5DmefgEI3-22" style="edgeStyle=orthogonalEdgeStyle;rounded=0;orthogonalLoop=1;jettySize=auto;html=1;exitX=1;exitY=0.5;exitDx=0;exitDy=0;entryX=0;entryY=0.75;entryDx=0;entryDy=0;" edge="1" parent="1" source="Sd4QSS0tqCg5DmefgEI3-21" target="Sd4QSS0tqCg5DmefgEI3-19">
          <mxGeometry relative="1" as="geometry" />
        </mxCell>
        <mxCell id="Sd4QSS0tqCg5DmefgEI3-21" value="&lt;div&gt;012782&lt;/div&gt;&lt;div&gt;MACb61410314&lt;/div&gt;&lt;div&gt;Comb. alarm, Screw conveyor&lt;br&gt;&lt;/div&gt;" style="rounded=0;whiteSpace=wrap;html=1;fillColor=#d5e8d4;strokeColor=#82b366;" vertex="1" parent="1">
          <mxGeometry x="-80" y="222" width="120" height="50" as="geometry" />
        </mxCell>
        <mxCell id="Sd4QSS0tqCg5DmefgEI3-24" style="edgeStyle=orthogonalEdgeStyle;rounded=0;orthogonalLoop=1;jettySize=auto;html=1;exitX=1;exitY=0.5;exitDx=0;exitDy=0;entryX=0;entryY=0.5;entryDx=0;entryDy=0;" edge="1" parent="1" source="Sd4QSS0tqCg5DmefgEI3-23" target="Sd4QSS0tqCg5DmefgEI3-19">
          <mxGeometry relative="1" as="geometry" />
        </mxCell>
        <mxCell id="Sd4QSS0tqCg5DmefgEI3-23" value="&lt;div&gt;012783&lt;/div&gt;&lt;div&gt;MACb61410315&lt;/div&gt;&lt;div&gt;Comb. alarm, Sifter motor&lt;br&gt;&lt;/div&gt;" style="rounded=0;whiteSpace=wrap;html=1;fillColor=#d5e8d4;strokeColor=#82b366;" vertex="1" parent="1">
          <mxGeometry x="-80" y="160" width="120" height="50" as="geometry" />
        </mxCell>
        <mxCell id="Sd4QSS0tqCg5DmefgEI3-26" style="edgeStyle=orthogonalEdgeStyle;rounded=0;orthogonalLoop=1;jettySize=auto;html=1;exitX=1;exitY=0.5;exitDx=0;exitDy=0;entryX=0;entryY=0.25;entryDx=0;entryDy=0;" edge="1" parent="1" source="Sd4QSS0tqCg5DmefgEI3-25" target="Sd4QSS0tqCg5DmefgEI3-19">
          <mxGeometry relative="1" as="geometry" />
        </mxCell>
        <mxCell id="Sd4QSS0tqCg5DmefgEI3-25" value="&lt;div&gt;012785&lt;/div&gt;&lt;div&gt;MACb61410305&lt;/div&gt;&lt;div&gt;Comb. alarm, Rotary valve&lt;br&gt;&lt;/div&gt;" style="rounded=0;whiteSpace=wrap;html=1;fillColor=#d5e8d4;strokeColor=#82b366;" vertex="1" parent="1">
          <mxGeometry x="-80" y="100" width="120" height="50" as="geometry" />
        </mxCell>
        <mxCell id="Sd4QSS0tqCg5DmefgEI3-28" style="edgeStyle=orthogonalEdgeStyle;rounded=0;orthogonalLoop=1;jettySize=auto;html=1;exitX=0.5;exitY=1;exitDx=0;exitDy=0;entryX=0.5;entryY=0;entryDx=0;entryDy=0;" edge="1" parent="1" source="Sd4QSS0tqCg5DmefgEI3-27" target="Sd4QSS0tqCg5DmefgEI3-4">
          <mxGeometry relative="1" as="geometry" />
        </mxCell>
        <mxCell id="Sd4QSS0tqCg5DmefgEI3-27" value="&lt;div&gt;014377&lt;/div&gt;&lt;div&gt;OkEmptyPressure_6141_o&lt;br&gt;&lt;/div&gt;" style="rounded=1;whiteSpace=wrap;html=1;fillColor=#d5e8d4;strokeColor=#82b366;" vertex="1" parent="1">
          <mxGeometry x="230" y="-180" width="120" height="50" as="geometry" />
        </mxCell>
        <mxCell id="Sd4QSS0tqCg5DmefgEI3-30" style="edgeStyle=orthogonalEdgeStyle;rounded=0;orthogonalLoop=1;jettySize=auto;html=1;exitX=1;exitY=0.5;exitDx=0;exitDy=0;entryX=0;entryY=0.5;entryDx=0;entryDy=0;" edge="1" parent="1" source="Sd4QSS0tqCg5DmefgEI3-29" target="Sd4QSS0tqCg5DmefgEI3-27">
          <mxGeometry relative="1" as="geometry" />
        </mxCell>
        <mxCell id="Sd4QSS0tqCg5DmefgEI3-29" value="&lt;div&gt;002431&lt;/div&gt;&lt;div&gt;PEmn61410411&lt;/div&gt;&lt;div&gt;Min Empty Level, Pressure, Blower room, compressed air&lt;br&gt;&lt;/div&gt;" style="rounded=0;whiteSpace=wrap;html=1;fillColor=#f8cecc;strokeColor=#b85450;" vertex="1" parent="1">
          <mxGeometry x="70" y="-180" width="120" height="50" as="geometry" />
        </mxCell>
        <mxCell id="Sd4QSS0tqCg5DmefgEI3-32" style="edgeStyle=orthogonalEdgeStyle;rounded=0;orthogonalLoop=1;jettySize=auto;html=1;exitX=1;exitY=0.5;exitDx=0;exitDy=0;" edge="1" parent="1" source="Sd4QSS0tqCg5DmefgEI3-31" target="Sd4QSS0tqCg5DmefgEI3-29">
          <mxGeometry relative="1" as="geometry" />
        </mxCell>
        <mxCell id="Sd4QSS0tqCg5DmefgEI3-31" value="&lt;div&gt;002431&lt;/div&gt;&lt;div&gt;PEmMx61410411&lt;/div&gt;&lt;div&gt;Max Empty Level, Pressure, Blower room, compressed air&lt;br&gt;&lt;/div&gt;" style="rounded=0;whiteSpace=wrap;html=1;fillColor=#f8cecc;strokeColor=#b85450;" vertex="1" parent="1">
          <mxGeometry x="-90" y="-180" width="120" height="50" as="geometry" />
        </mxCell>
        <mxCell id="Sd4QSS0tqCg5DmefgEI3-34" style="edgeStyle=orthogonalEdgeStyle;rounded=0;orthogonalLoop=1;jettySize=auto;html=1;exitX=1;exitY=0.5;exitDx=0;exitDy=0;entryX=0;entryY=0.5;entryDx=0;entryDy=0;" edge="1" parent="1" source="Sd4QSS0tqCg5DmefgEI3-33" target="Sd4QSS0tqCg5DmefgEI3-31">
          <mxGeometry relative="1" as="geometry" />
        </mxCell>
        <mxCell id="Sd4QSS0tqCg5DmefgEI3-33" value="&lt;div&gt;014376&lt;/div&gt;Help_30Sec_o" style="rounded=0;whiteSpace=wrap;html=1;fillColor=#d5e8d4;strokeColor=#82b366;" vertex="1" parent="1">
          <mxGeometry x="-240" y="-180" width="120" height="50" as="geometry" />
        </mxCell>
        <mxCell id="Sd4QSS0tqCg5DmefgEI3-36" style="edgeStyle=orthogonalEdgeStyle;rounded=0;orthogonalLoop=1;jettySize=auto;html=1;exitX=1;exitY=0.5;exitDx=0;exitDy=0;entryX=0;entryY=0.75;entryDx=0;entryDy=0;" edge="1" parent="1" source="Sd4QSS0tqCg5DmefgEI3-35" target="Sd4QSS0tqCg5DmefgEI3-27">
          <mxGeometry relative="1" as="geometry" />
        </mxCell>
        <mxCell id="Sd4QSS0tqCg5DmefgEI3-35" value="&lt;div&gt;010035&lt;/div&gt;&lt;div&gt;MCSt61410402&lt;/div&gt;&lt;div&gt;Start, Blower room, compressed air&lt;br&gt;&lt;/div&gt;" style="rounded=0;whiteSpace=wrap;html=1;fillColor=#d5e8d4;strokeColor=#82b366;" vertex="1" parent="1">
          <mxGeometry x="70" y="-120" width="120" height="50" as="geometry" />
        </mxCell>
        <mxCell id="Sd4QSS0tqCg5DmefgEI3-38" style="edgeStyle=orthogonalEdgeStyle;rounded=0;orthogonalLoop=1;jettySize=auto;html=1;exitX=1;exitY=0.5;exitDx=0;exitDy=0;" edge="1" parent="1" source="Sd4QSS0tqCg5DmefgEI3-37" target="Sd4QSS0tqCg5DmefgEI3-35">
          <mxGeometry relative="1" as="geometry" />
        </mxCell>
        <mxCell id="Sd4QSS0tqCg5DmefgEI3-37" value="014382" style="rounded=0;whiteSpace=wrap;html=1;fillColor=#f8cecc;strokeColor=#b85450;" vertex="1" parent="1">
          <mxGeometry x="-90" y="-120" width="120" height="50" as="geometry" />
        </mxCell>
        <mxCell id="Sd4QSS0tqCg5DmefgEI3-40" style="edgeStyle=orthogonalEdgeStyle;rounded=0;orthogonalLoop=1;jettySize=auto;html=1;exitX=1;exitY=0.5;exitDx=0;exitDy=0;" edge="1" parent="1" source="Sd4QSS0tqCg5DmefgEI3-39" target="Sd4QSS0tqCg5DmefgEI3-37">
          <mxGeometry relative="1" as="geometry" />
        </mxCell>
        <mxCell id="Sd4QSS0tqCg5DmefgEI3-39" value="&lt;div&gt;014374&lt;/div&gt;StartFilling_6141_o" style="rounded=0;whiteSpace=wrap;html=1;fillColor=#d5e8d4;strokeColor=#82b366;" vertex="1" parent="1">
          <mxGeometry x="-240" y="-120" width="120" height="50" as="geometry" />
        </mxCell>
        <mxCell id="Sd4QSS0tqCg5DmefgEI3-42" style="edgeStyle=orthogonalEdgeStyle;rounded=0;orthogonalLoop=1;jettySize=auto;html=1;exitX=1;exitY=0.5;exitDx=0;exitDy=0;entryX=0;entryY=0.5;entryDx=0;entryDy=0;" edge="1" parent="1" source="Sd4QSS0tqCg5DmefgEI3-41" target="Sd4QSS0tqCg5DmefgEI3-39">
          <mxGeometry relative="1" as="geometry" />
        </mxCell>
        <mxCell id="Sd4QSS0tqCg5DmefgEI3-119" style="edgeStyle=orthogonalEdgeStyle;rounded=0;orthogonalLoop=1;jettySize=auto;html=1;exitX=0.5;exitY=1;exitDx=0;exitDy=0;entryX=0.25;entryY=1;entryDx=0;entryDy=0;fillColor=#e1d5e7;strokeColor=#9673a6;" edge="1" parent="1" source="Sd4QSS0tqCg5DmefgEI3-41" target="Sd4QSS0tqCg5DmefgEI3-27">
          <mxGeometry relative="1" as="geometry" />
        </mxCell>
        <mxCell id="Sd4QSS0tqCg5DmefgEI3-41" value="&lt;div&gt;014377&lt;/div&gt;&lt;div&gt;OkEmptyPressure_6141_o&lt;br&gt;&lt;/div&gt;" style="rounded=0;whiteSpace=wrap;html=1;fillColor=#d5e8d4;strokeColor=#82b366;" vertex="1" parent="1">
          <mxGeometry x="-390" y="-120" width="120" height="50" as="geometry" />
        </mxCell>
        <mxCell id="Sd4QSS0tqCg5DmefgEI3-44" style="edgeStyle=orthogonalEdgeStyle;rounded=0;orthogonalLoop=1;jettySize=auto;html=1;exitX=0.5;exitY=1;exitDx=0;exitDy=0;entryX=0.5;entryY=0;entryDx=0;entryDy=0;" edge="1" parent="1" source="Sd4QSS0tqCg5DmefgEI3-43" target="Sd4QSS0tqCg5DmefgEI3-37">
          <mxGeometry relative="1" as="geometry" />
        </mxCell>
        <mxCell id="Sd4QSS0tqCg5DmefgEI3-81" style="edgeStyle=orthogonalEdgeStyle;rounded=0;orthogonalLoop=1;jettySize=auto;html=1;exitX=0.5;exitY=0;exitDx=0;exitDy=0;entryX=0;entryY=0.5;entryDx=0;entryDy=0;" edge="1" parent="1" source="Sd4QSS0tqCg5DmefgEI3-43" target="Sd4QSS0tqCg5DmefgEI3-80">
          <mxGeometry relative="1" as="geometry">
            <Array as="points">
              <mxPoint x="-40" y="-290" />
              <mxPoint x="-20" y="-290" />
              <mxPoint x="-20" y="-315" />
            </Array>
          </mxGeometry>
        </mxCell>
        <mxCell id="Sd4QSS0tqCg5DmefgEI3-113" style="edgeStyle=orthogonalEdgeStyle;rounded=0;orthogonalLoop=1;jettySize=auto;html=1;exitX=0.5;exitY=0;exitDx=0;exitDy=0;entryX=0.5;entryY=1;entryDx=0;entryDy=0;fillColor=#f8cecc;strokeColor=#b85450;" edge="1" parent="1" source="Sd4QSS0tqCg5DmefgEI3-43" target="Sd4QSS0tqCg5DmefgEI3-112">
          <mxGeometry relative="1" as="geometry">
            <Array as="points">
              <mxPoint x="-40" y="-300" />
              <mxPoint x="-140" y="-300" />
              <mxPoint x="-140" y="-465" />
              <mxPoint x="-960" y="-465" />
            </Array>
          </mxGeometry>
        </mxCell>
        <mxCell id="Sd4QSS0tqCg5DmefgEI3-155" style="edgeStyle=orthogonalEdgeStyle;rounded=0;orthogonalLoop=1;jettySize=auto;html=1;exitX=0.25;exitY=1;exitDx=0;exitDy=0;fillColor=#f8cecc;strokeColor=#b85450;" edge="1" parent="1" source="Sd4QSS0tqCg5DmefgEI3-43" target="Sd4QSS0tqCg5DmefgEI3-153">
          <mxGeometry relative="1" as="geometry">
            <Array as="points">
              <mxPoint x="-70" y="-220" />
              <mxPoint x="-740" y="-220" />
            </Array>
          </mxGeometry>
        </mxCell>
        <mxCell id="Sd4QSS0tqCg5DmefgEI3-43" value="014382" style="rounded=1;whiteSpace=wrap;html=1;fillColor=#d5e8d4;strokeColor=#82b366;" vertex="1" parent="1">
          <mxGeometry x="-100" y="-280" width="120" height="50" as="geometry" />
        </mxCell>
        <mxCell id="Sd4QSS0tqCg5DmefgEI3-46" style="edgeStyle=orthogonalEdgeStyle;rounded=0;orthogonalLoop=1;jettySize=auto;html=1;exitX=1;exitY=0.5;exitDx=0;exitDy=0;" edge="1" parent="1" source="Sd4QSS0tqCg5DmefgEI3-45" target="Sd4QSS0tqCg5DmefgEI3-43">
          <mxGeometry relative="1" as="geometry" />
        </mxCell>
        <mxCell id="Sd4QSS0tqCg5DmefgEI3-45" value="&lt;div&gt;timer&lt;/div&gt;&lt;div&gt;410067&lt;br&gt;&lt;/div&gt;" style="rounded=0;whiteSpace=wrap;html=1;fillColor=#dae8fc;strokeColor=#6c8ebf;" vertex="1" parent="1">
          <mxGeometry x="-180" y="-280" width="50" height="50" as="geometry" />
        </mxCell>
        <mxCell id="Sd4QSS0tqCg5DmefgEI3-48" style="edgeStyle=orthogonalEdgeStyle;rounded=0;orthogonalLoop=1;jettySize=auto;html=1;exitX=1;exitY=0.5;exitDx=0;exitDy=0;" edge="1" parent="1" source="Sd4QSS0tqCg5DmefgEI3-47" target="Sd4QSS0tqCg5DmefgEI3-45">
          <mxGeometry relative="1" as="geometry" />
        </mxCell>
        <mxCell id="Sd4QSS0tqCg5DmefgEI3-47" value="&lt;div&gt;010085&lt;/div&gt;&lt;div&gt;MCSt61410305&lt;/div&gt;&lt;div&gt;Start, Rotary valve&lt;br&gt;&lt;/div&gt;" style="rounded=0;whiteSpace=wrap;html=1;fillColor=#f8cecc;strokeColor=#b85450;" vertex="1" parent="1">
          <mxGeometry x="-340" y="-280" width="120" height="50" as="geometry" />
        </mxCell>
        <mxCell id="Sd4QSS0tqCg5DmefgEI3-50" style="edgeStyle=orthogonalEdgeStyle;rounded=0;orthogonalLoop=1;jettySize=auto;html=1;exitX=1;exitY=0.5;exitDx=0;exitDy=0;entryX=0;entryY=0.5;entryDx=0;entryDy=0;" edge="1" parent="1" source="Sd4QSS0tqCg5DmefgEI3-49" target="Sd4QSS0tqCg5DmefgEI3-47">
          <mxGeometry relative="1" as="geometry" />
        </mxCell>
        <mxCell id="Sd4QSS0tqCg5DmefgEI3-49" value="&lt;div&gt;010335&lt;/div&gt;&lt;div&gt;MPSt61410402&lt;/div&gt;&lt;div&gt;Cond.auto, Blower room, Compressed air&lt;br&gt;&lt;/div&gt;" style="rounded=0;whiteSpace=wrap;html=1;fillColor=#d5e8d4;strokeColor=#82b366;" vertex="1" parent="1">
          <mxGeometry x="-490" y="-280" width="120" height="50" as="geometry" />
        </mxCell>
        <mxCell id="Sd4QSS0tqCg5DmefgEI3-52" style="edgeStyle=orthogonalEdgeStyle;rounded=0;orthogonalLoop=1;jettySize=auto;html=1;exitX=1;exitY=0.5;exitDx=0;exitDy=0;entryX=0;entryY=0.5;entryDx=0;entryDy=0;" edge="1" parent="1" source="Sd4QSS0tqCg5DmefgEI3-51" target="Sd4QSS0tqCg5DmefgEI3-49">
          <mxGeometry relative="1" as="geometry" />
        </mxCell>
        <mxCell id="Sd4QSS0tqCg5DmefgEI3-51" value="014381" style="rounded=0;whiteSpace=wrap;html=1;fillColor=#f8cecc;strokeColor=#b85450;" vertex="1" parent="1">
          <mxGeometry x="-640" y="-280" width="120" height="50" as="geometry" />
        </mxCell>
        <mxCell id="Sd4QSS0tqCg5DmefgEI3-54" style="edgeStyle=orthogonalEdgeStyle;rounded=0;orthogonalLoop=1;jettySize=auto;html=1;exitX=0.5;exitY=1;exitDx=0;exitDy=0;" edge="1" parent="1" source="Sd4QSS0tqCg5DmefgEI3-53" target="Sd4QSS0tqCg5DmefgEI3-51">
          <mxGeometry relative="1" as="geometry" />
        </mxCell>
        <mxCell id="Sd4QSS0tqCg5DmefgEI3-53" value="014381" style="rounded=1;whiteSpace=wrap;html=1;fillColor=#d5e8d4;strokeColor=#82b366;" vertex="1" parent="1">
          <mxGeometry x="-100" y="-390" width="120" height="50" as="geometry" />
        </mxCell>
        <mxCell id="Sd4QSS0tqCg5DmefgEI3-57" style="edgeStyle=orthogonalEdgeStyle;rounded=0;orthogonalLoop=1;jettySize=auto;html=1;exitX=1;exitY=0.5;exitDx=0;exitDy=0;" edge="1" parent="1" source="Sd4QSS0tqCg5DmefgEI3-55" target="Sd4QSS0tqCg5DmefgEI3-56">
          <mxGeometry relative="1" as="geometry" />
        </mxCell>
        <mxCell id="Sd4QSS0tqCg5DmefgEI3-55" value="&lt;div&gt;timer&lt;/div&gt;&lt;div&gt;410068&lt;/div&gt;&lt;div&gt;Time to start blower 2&lt;br&gt;&lt;/div&gt;" style="rounded=0;whiteSpace=wrap;html=1;fillColor=#dae8fc;strokeColor=#6c8ebf;" vertex="1" parent="1">
          <mxGeometry x="-100" y="-450" width="120" height="50" as="geometry" />
        </mxCell>
        <mxCell id="Sd4QSS0tqCg5DmefgEI3-56" value="&lt;div&gt;010335&lt;/div&gt;&lt;div&gt;MPSt61410402&lt;/div&gt;&lt;div&gt;Cond.auto, blower room,compressed air&lt;br&gt;&lt;/div&gt;" style="rounded=1;whiteSpace=wrap;html=1;fillColor=#d5e8d4;strokeColor=#82b366;" vertex="1" parent="1">
          <mxGeometry x="100" y="-450" width="120" height="50" as="geometry" />
        </mxCell>
        <mxCell id="Sd4QSS0tqCg5DmefgEI3-59" style="edgeStyle=orthogonalEdgeStyle;rounded=0;orthogonalLoop=1;jettySize=auto;html=1;fillColor=#fff2cc;strokeColor=#d6b656;exitX=0.5;exitY=1;exitDx=0;exitDy=0;" edge="1" parent="1" source="Sd4QSS0tqCg5DmefgEI3-58" target="Sd4QSS0tqCg5DmefgEI3-39">
          <mxGeometry relative="1" as="geometry" />
        </mxCell>
        <mxCell id="Sd4QSS0tqCg5DmefgEI3-60" style="edgeStyle=orthogonalEdgeStyle;rounded=0;orthogonalLoop=1;jettySize=auto;html=1;exitX=1;exitY=0.5;exitDx=0;exitDy=0;entryX=0;entryY=0.5;entryDx=0;entryDy=0;" edge="1" parent="1" source="Sd4QSS0tqCg5DmefgEI3-58" target="Sd4QSS0tqCg5DmefgEI3-55">
          <mxGeometry relative="1" as="geometry" />
        </mxCell>
        <mxCell id="Sd4QSS0tqCg5DmefgEI3-70" style="edgeStyle=orthogonalEdgeStyle;rounded=0;orthogonalLoop=1;jettySize=auto;html=1;exitX=1;exitY=0.75;exitDx=0;exitDy=0;entryX=0;entryY=0.5;entryDx=0;entryDy=0;" edge="1" parent="1" source="Sd4QSS0tqCg5DmefgEI3-58" target="Sd4QSS0tqCg5DmefgEI3-53">
          <mxGeometry relative="1" as="geometry" />
        </mxCell>
        <mxCell id="Sd4QSS0tqCg5DmefgEI3-58" value="&lt;div&gt;014374&lt;/div&gt;StartFilling_6141_o" style="rounded=0;whiteSpace=wrap;html=1;fillColor=#d5e8d4;strokeColor=#82b366;" vertex="1" parent="1">
          <mxGeometry x="-250" y="-450" width="120" height="50" as="geometry" />
        </mxCell>
        <mxCell id="Sd4QSS0tqCg5DmefgEI3-62" style="edgeStyle=orthogonalEdgeStyle;rounded=0;orthogonalLoop=1;jettySize=auto;html=1;exitX=1;exitY=0.5;exitDx=0;exitDy=0;entryX=0;entryY=0.5;entryDx=0;entryDy=0;" edge="1" parent="1" source="Sd4QSS0tqCg5DmefgEI3-61" target="Sd4QSS0tqCg5DmefgEI3-58">
          <mxGeometry relative="1" as="geometry" />
        </mxCell>
        <mxCell id="Sd4QSS0tqCg5DmefgEI3-61" value="&lt;div&gt;012735&lt;/div&gt;&lt;div&gt;MACb61410402&lt;/div&gt;&lt;div&gt;Comb. alarm, blower room compressed air&lt;br&gt;&lt;/div&gt;" style="rounded=0;whiteSpace=wrap;html=1;fillColor=#f8cecc;strokeColor=#b85450;" vertex="1" parent="1">
          <mxGeometry x="-400" y="-450" width="120" height="50" as="geometry" />
        </mxCell>
        <mxCell id="Sd4QSS0tqCg5DmefgEI3-64" style="edgeStyle=orthogonalEdgeStyle;rounded=0;orthogonalLoop=1;jettySize=auto;html=1;exitX=1;exitY=0.5;exitDx=0;exitDy=0;entryX=0;entryY=0.5;entryDx=0;entryDy=0;" edge="1" parent="1" source="Sd4QSS0tqCg5DmefgEI3-63" target="Sd4QSS0tqCg5DmefgEI3-61">
          <mxGeometry relative="1" as="geometry" />
        </mxCell>
        <mxCell id="Sd4QSS0tqCg5DmefgEI3-65" style="edgeStyle=orthogonalEdgeStyle;rounded=0;orthogonalLoop=1;jettySize=auto;html=1;entryX=0.55;entryY=0.16;entryDx=0;entryDy=0;entryPerimeter=0;fillColor=#fff2cc;strokeColor=#d6b656;" edge="1" parent="1" source="Sd4QSS0tqCg5DmefgEI3-63" target="Sd4QSS0tqCg5DmefgEI3-17">
          <mxGeometry relative="1" as="geometry" />
        </mxCell>
        <mxCell id="Sd4QSS0tqCg5DmefgEI3-63" value="&lt;div&gt;014345&lt;/div&gt;&lt;div&gt;AlSpl61410300&lt;/div&gt;&lt;div&gt;Allowed supply Mill (OK inlet)&lt;br&gt;&lt;/div&gt;" style="rounded=0;whiteSpace=wrap;html=1;fillColor=#d5e8d4;strokeColor=#82b366;" vertex="1" parent="1">
          <mxGeometry x="-550" y="-450" width="120" height="50" as="geometry" />
        </mxCell>
        <mxCell id="Sd4QSS0tqCg5DmefgEI3-67" style="edgeStyle=orthogonalEdgeStyle;rounded=0;orthogonalLoop=1;jettySize=auto;html=1;exitX=1;exitY=0.5;exitDx=0;exitDy=0;" edge="1" parent="1" source="Sd4QSS0tqCg5DmefgEI3-66" target="Sd4QSS0tqCg5DmefgEI3-63">
          <mxGeometry relative="1" as="geometry" />
        </mxCell>
        <mxCell id="Sd4QSS0tqCg5DmefgEI3-172" style="edgeStyle=orthogonalEdgeStyle;rounded=0;orthogonalLoop=1;jettySize=auto;html=1;exitX=0.5;exitY=1;exitDx=0;exitDy=0;fillColor=#e1d5e7;strokeColor=#9673a6;" edge="1" parent="1" source="Sd4QSS0tqCg5DmefgEI3-66" target="Sd4QSS0tqCg5DmefgEI3-15">
          <mxGeometry relative="1" as="geometry" />
        </mxCell>
        <mxCell id="Sd4QSS0tqCg5DmefgEI3-66" value="&lt;div&gt;014325&lt;/div&gt;&lt;div&gt;AcMill61410300&lt;/div&gt;&lt;div&gt;Select Mill, supply sugar from Silo&lt;br&gt;&lt;/div&gt;" style="rounded=0;whiteSpace=wrap;html=1;fillColor=#d5e8d4;strokeColor=#82b366;" vertex="1" parent="1">
          <mxGeometry x="-700" y="-450" width="120" height="50" as="geometry" />
        </mxCell>
        <mxCell id="Sd4QSS0tqCg5DmefgEI3-69" style="edgeStyle=orthogonalEdgeStyle;rounded=0;orthogonalLoop=1;jettySize=auto;html=1;exitX=1;exitY=0.5;exitDx=0;exitDy=0;entryX=0;entryY=0.5;entryDx=0;entryDy=0;" edge="1" parent="1" source="Sd4QSS0tqCg5DmefgEI3-68" target="Sd4QSS0tqCg5DmefgEI3-66">
          <mxGeometry relative="1" as="geometry" />
        </mxCell>
        <mxCell id="Sd4QSS0tqCg5DmefgEI3-77" value="" style="edgeStyle=orthogonalEdgeStyle;rounded=0;orthogonalLoop=1;jettySize=auto;html=1;" edge="1" parent="1" source="Sd4QSS0tqCg5DmefgEI3-68" target="Sd4QSS0tqCg5DmefgEI3-66">
          <mxGeometry relative="1" as="geometry" />
        </mxCell>
        <mxCell id="Sd4QSS0tqCg5DmefgEI3-78" style="edgeStyle=orthogonalEdgeStyle;rounded=0;orthogonalLoop=1;jettySize=auto;html=1;exitX=1;exitY=0.25;exitDx=0;exitDy=0;entryX=0;entryY=0.5;entryDx=0;entryDy=0;" edge="1" parent="1" source="Sd4QSS0tqCg5DmefgEI3-68" target="Sd4QSS0tqCg5DmefgEI3-75">
          <mxGeometry relative="1" as="geometry">
            <Array as="points">
              <mxPoint x="-710" y="-438" />
              <mxPoint x="-710" y="-505" />
            </Array>
          </mxGeometry>
        </mxCell>
        <mxCell id="Sd4QSS0tqCg5DmefgEI3-68" value="&lt;div&gt;004294&lt;br&gt;&lt;/div&gt;&lt;div&gt;Strt61410000&lt;/div&gt;&lt;div&gt;Control signal start&lt;br&gt;&lt;/div&gt;" style="rounded=0;whiteSpace=wrap;html=1;fillColor=#d5e8d4;strokeColor=#82b366;" vertex="1" parent="1">
          <mxGeometry x="-850" y="-450" width="120" height="50" as="geometry" />
        </mxCell>
        <mxCell id="Sd4QSS0tqCg5DmefgEI3-72" style="edgeStyle=orthogonalEdgeStyle;rounded=0;orthogonalLoop=1;jettySize=auto;html=1;exitX=1;exitY=0.5;exitDx=0;exitDy=0;entryX=0;entryY=0.25;entryDx=0;entryDy=0;" edge="1" parent="1" source="Sd4QSS0tqCg5DmefgEI3-71" target="Sd4QSS0tqCg5DmefgEI3-56">
          <mxGeometry relative="1" as="geometry" />
        </mxCell>
        <mxCell id="Sd4QSS0tqCg5DmefgEI3-71" value="&lt;div&gt;014397&lt;/div&gt;&lt;div&gt;Delay_61410402&lt;br&gt;&lt;/div&gt;" style="rounded=0;whiteSpace=wrap;html=1;fillColor=#f8cecc;strokeColor=#b85450;" vertex="1" parent="1">
          <mxGeometry x="-100" y="-530" width="120" height="50" as="geometry" />
        </mxCell>
        <mxCell id="Sd4QSS0tqCg5DmefgEI3-74" style="edgeStyle=orthogonalEdgeStyle;rounded=0;orthogonalLoop=1;jettySize=auto;html=1;exitX=1;exitY=0.5;exitDx=0;exitDy=0;entryX=0;entryY=0.5;entryDx=0;entryDy=0;" edge="1" parent="1" source="Sd4QSS0tqCg5DmefgEI3-73" target="Sd4QSS0tqCg5DmefgEI3-71">
          <mxGeometry relative="1" as="geometry" />
        </mxCell>
        <mxCell id="Sd4QSS0tqCg5DmefgEI3-73" value="&lt;div&gt;012735&lt;/div&gt;&lt;div&gt;MACb61410402&lt;/div&gt;&lt;div&gt;Comb. alarm, blower room compressed air&lt;br&gt;&lt;/div&gt;" style="rounded=0;whiteSpace=wrap;html=1;fillColor=#f8cecc;strokeColor=#b85450;" vertex="1" parent="1">
          <mxGeometry x="-240" y="-530" width="120" height="50" as="geometry" />
        </mxCell>
        <mxCell id="Sd4QSS0tqCg5DmefgEI3-76" style="edgeStyle=orthogonalEdgeStyle;rounded=0;orthogonalLoop=1;jettySize=auto;html=1;exitX=1;exitY=0.5;exitDx=0;exitDy=0;entryX=0;entryY=0.5;entryDx=0;entryDy=0;" edge="1" parent="1" source="Sd4QSS0tqCg5DmefgEI3-75" target="Sd4QSS0tqCg5DmefgEI3-73">
          <mxGeometry relative="1" as="geometry" />
        </mxCell>
        <mxCell id="Sd4QSS0tqCg5DmefgEI3-79" style="edgeStyle=orthogonalEdgeStyle;rounded=0;orthogonalLoop=1;jettySize=auto;html=1;exitX=1;exitY=0.75;exitDx=0;exitDy=0;fillColor=#fff2cc;strokeColor=#d6b656;" edge="1" parent="1" source="Sd4QSS0tqCg5DmefgEI3-75" target="Sd4QSS0tqCg5DmefgEI3-56">
          <mxGeometry relative="1" as="geometry">
            <Array as="points">
              <mxPoint x="-260" y="-492" />
              <mxPoint x="-260" y="-470" />
              <mxPoint x="160" y="-470" />
            </Array>
          </mxGeometry>
        </mxCell>
        <mxCell id="Sd4QSS0tqCg5DmefgEI3-75" value="&lt;div&gt;010335&lt;/div&gt;&lt;div&gt;MPSt61410402&lt;/div&gt;&lt;div&gt;Cond.auto, blower room,compressed air&lt;br&gt;&lt;/div&gt;" style="rounded=0;whiteSpace=wrap;html=1;fillColor=#d5e8d4;strokeColor=#82b366;" vertex="1" parent="1">
          <mxGeometry x="-400" y="-530" width="120" height="50" as="geometry" />
        </mxCell>
        <mxCell id="Sd4QSS0tqCg5DmefgEI3-83" style="edgeStyle=orthogonalEdgeStyle;rounded=0;orthogonalLoop=1;jettySize=auto;html=1;exitX=1;exitY=0.5;exitDx=0;exitDy=0;entryX=0;entryY=0.5;entryDx=0;entryDy=0;" edge="1" parent="1" source="Sd4QSS0tqCg5DmefgEI3-80" target="Sd4QSS0tqCg5DmefgEI3-82">
          <mxGeometry relative="1" as="geometry" />
        </mxCell>
        <mxCell id="Sd4QSS0tqCg5DmefgEI3-80" value="014382" style="rounded=0;whiteSpace=wrap;html=1;fillColor=#d5e8d4;strokeColor=#82b366;" vertex="1" parent="1">
          <mxGeometry x="40" y="-340" width="120" height="50" as="geometry" />
        </mxCell>
        <mxCell id="Sd4QSS0tqCg5DmefgEI3-85" style="edgeStyle=orthogonalEdgeStyle;rounded=0;orthogonalLoop=1;jettySize=auto;html=1;exitX=1;exitY=0.5;exitDx=0;exitDy=0;entryX=0;entryY=0.5;entryDx=0;entryDy=0;" edge="1" parent="1" source="Sd4QSS0tqCg5DmefgEI3-82" target="Sd4QSS0tqCg5DmefgEI3-84">
          <mxGeometry relative="1" as="geometry" />
        </mxCell>
        <mxCell id="Sd4QSS0tqCg5DmefgEI3-82" value="&lt;div&gt;timer&lt;/div&gt;&lt;div&gt;15sec&lt;br&gt;&lt;/div&gt;" style="rounded=0;whiteSpace=wrap;html=1;fillColor=#dae8fc;strokeColor=#6c8ebf;" vertex="1" parent="1">
          <mxGeometry x="190" y="-340" width="50" height="50" as="geometry" />
        </mxCell>
        <mxCell id="Sd4QSS0tqCg5DmefgEI3-86" style="edgeStyle=orthogonalEdgeStyle;rounded=0;orthogonalLoop=1;jettySize=auto;html=1;exitX=0.5;exitY=0;exitDx=0;exitDy=0;entryX=0.5;entryY=0;entryDx=0;entryDy=0;" edge="1" parent="1" source="Sd4QSS0tqCg5DmefgEI3-84" target="Sd4QSS0tqCg5DmefgEI3-71">
          <mxGeometry relative="1" as="geometry" />
        </mxCell>
        <mxCell id="Sd4QSS0tqCg5DmefgEI3-84" value="&lt;div&gt;014397&lt;/div&gt;&lt;div&gt;Delay_61410402&lt;br&gt;&lt;/div&gt;" style="rounded=1;whiteSpace=wrap;html=1;fillColor=#d5e8d4;strokeColor=#82b366;" vertex="1" parent="1">
          <mxGeometry x="269" y="-340" width="120" height="50" as="geometry" />
        </mxCell>
        <mxCell id="Sd4QSS0tqCg5DmefgEI3-89" style="edgeStyle=orthogonalEdgeStyle;rounded=0;orthogonalLoop=1;jettySize=auto;html=1;exitX=0.5;exitY=1;exitDx=0;exitDy=0;entryX=0.5;entryY=0;entryDx=0;entryDy=0;fillColor=#fff2cc;strokeColor=#d6b656;" edge="1" parent="1" source="Sd4QSS0tqCg5DmefgEI3-87" target="Sd4QSS0tqCg5DmefgEI3-63">
          <mxGeometry relative="1" as="geometry" />
        </mxCell>
        <mxCell id="Sd4QSS0tqCg5DmefgEI3-87" value="&lt;div&gt;014345&lt;/div&gt;&lt;div&gt;AlSpl61410300&lt;/div&gt;&lt;div&gt;Allowed supply Mill (OK inlet)&lt;br&gt;&lt;/div&gt;" style="rounded=1;whiteSpace=wrap;html=1;fillColor=#d5e8d4;strokeColor=#82b366;" vertex="1" parent="1">
          <mxGeometry x="-550" y="-634" width="120" height="50" as="geometry" />
        </mxCell>
        <mxCell id="Sd4QSS0tqCg5DmefgEI3-91" style="edgeStyle=orthogonalEdgeStyle;rounded=0;orthogonalLoop=1;jettySize=auto;html=1;exitX=1;exitY=0.5;exitDx=0;exitDy=0;entryX=0;entryY=0.5;entryDx=0;entryDy=0;" edge="1" parent="1" source="Sd4QSS0tqCg5DmefgEI3-90" target="Sd4QSS0tqCg5DmefgEI3-87">
          <mxGeometry relative="1" as="geometry" />
        </mxCell>
        <mxCell id="Sd4QSS0tqCg5DmefgEI3-90" value="&lt;div&gt;014392&lt;/div&gt;&lt;div&gt;SupplyStopped&lt;/div&gt;&lt;div&gt;&lt;br&gt;&lt;/div&gt;" style="rounded=0;whiteSpace=wrap;html=1;fillColor=#d5e8d4;strokeColor=#82b366;" vertex="1" parent="1">
          <mxGeometry x="-720" y="-634" width="120" height="50" as="geometry" />
        </mxCell>
        <mxCell id="Sd4QSS0tqCg5DmefgEI3-93" style="edgeStyle=orthogonalEdgeStyle;rounded=0;orthogonalLoop=1;jettySize=auto;html=1;exitX=1;exitY=0.5;exitDx=0;exitDy=0;entryX=0;entryY=0.75;entryDx=0;entryDy=0;" edge="1" parent="1" source="Sd4QSS0tqCg5DmefgEI3-92" target="Sd4QSS0tqCg5DmefgEI3-87">
          <mxGeometry relative="1" as="geometry" />
        </mxCell>
        <mxCell id="Sd4QSS0tqCg5DmefgEI3-92" value="&lt;div&gt;014345&lt;/div&gt;&lt;div&gt;AlSpl61410300&lt;/div&gt;&lt;div&gt;Allowed supply Mill (OK inlet)&lt;br&gt;&lt;/div&gt;" style="rounded=0;whiteSpace=wrap;html=1;fillColor=#d5e8d4;strokeColor=#82b366;" vertex="1" parent="1">
          <mxGeometry x="-720" y="-580" width="120" height="50" as="geometry" />
        </mxCell>
        <mxCell id="Sd4QSS0tqCg5DmefgEI3-95" style="edgeStyle=orthogonalEdgeStyle;rounded=0;orthogonalLoop=1;jettySize=auto;html=1;exitX=0.5;exitY=1;exitDx=0;exitDy=0;entryX=0.5;entryY=0;entryDx=0;entryDy=0;fillColor=#e1d5e7;strokeColor=#9673a6;" edge="1" parent="1" source="Sd4QSS0tqCg5DmefgEI3-94" target="Sd4QSS0tqCg5DmefgEI3-66">
          <mxGeometry relative="1" as="geometry" />
        </mxCell>
        <mxCell id="Sd4QSS0tqCg5DmefgEI3-96" style="edgeStyle=orthogonalEdgeStyle;rounded=0;orthogonalLoop=1;jettySize=auto;html=1;exitX=1;exitY=0.5;exitDx=0;exitDy=0;entryX=0;entryY=0.5;entryDx=0;entryDy=0;" edge="1" parent="1" source="Sd4QSS0tqCg5DmefgEI3-94" target="Sd4QSS0tqCg5DmefgEI3-90">
          <mxGeometry relative="1" as="geometry" />
        </mxCell>
        <mxCell id="Sd4QSS0tqCg5DmefgEI3-97" style="edgeStyle=orthogonalEdgeStyle;rounded=0;orthogonalLoop=1;jettySize=auto;html=1;exitX=1;exitY=0.75;exitDx=0;exitDy=0;entryX=0;entryY=0.5;entryDx=0;entryDy=0;" edge="1" parent="1" source="Sd4QSS0tqCg5DmefgEI3-94" target="Sd4QSS0tqCg5DmefgEI3-92">
          <mxGeometry relative="1" as="geometry" />
        </mxCell>
        <mxCell id="Sd4QSS0tqCg5DmefgEI3-94" value="&lt;div&gt;014325&lt;/div&gt;&lt;div&gt;AcMill61410300&lt;/div&gt;&lt;div&gt;Select Mill, supply sugar from Silo&lt;br&gt;&lt;/div&gt;" style="rounded=0;whiteSpace=wrap;html=1;fillColor=#d5e8d4;strokeColor=#82b366;" vertex="1" parent="1">
          <mxGeometry x="-880" y="-634" width="120" height="50" as="geometry" />
        </mxCell>
        <mxCell id="Sd4QSS0tqCg5DmefgEI3-99" style="edgeStyle=orthogonalEdgeStyle;rounded=0;orthogonalLoop=1;jettySize=auto;html=1;exitX=1;exitY=0.5;exitDx=0;exitDy=0;entryX=0;entryY=0.5;entryDx=0;entryDy=0;" edge="1" parent="1" source="Sd4QSS0tqCg5DmefgEI3-98" target="Sd4QSS0tqCg5DmefgEI3-94">
          <mxGeometry relative="1" as="geometry" />
        </mxCell>
        <mxCell id="Sd4QSS0tqCg5DmefgEI3-98" value="&lt;div&gt;001899&lt;/div&gt;&lt;div&gt;Alarm_MBUS_Check_PLC10&lt;br&gt;&lt;/div&gt;" style="rounded=0;whiteSpace=wrap;html=1;fillColor=#f8cecc;strokeColor=#b85450;" vertex="1" parent="1">
          <mxGeometry x="-1040" y="-634" width="120" height="50" as="geometry" />
        </mxCell>
        <mxCell id="Sd4QSS0tqCg5DmefgEI3-101" style="edgeStyle=orthogonalEdgeStyle;rounded=0;orthogonalLoop=1;jettySize=auto;html=1;exitX=1;exitY=0.5;exitDx=0;exitDy=0;entryX=0;entryY=0.5;entryDx=0;entryDy=0;" edge="1" parent="1" source="Sd4QSS0tqCg5DmefgEI3-100" target="Sd4QSS0tqCg5DmefgEI3-98">
          <mxGeometry relative="1" as="geometry" />
        </mxCell>
        <mxCell id="Sd4QSS0tqCg5DmefgEI3-100" value="&lt;div&gt;014390&lt;/div&gt;&lt;div&gt;Alarm_MBUS_PLC10&lt;br&gt;&lt;/div&gt;" style="rounded=0;whiteSpace=wrap;html=1;fillColor=#f8cecc;strokeColor=#b85450;" vertex="1" parent="1">
          <mxGeometry x="-1190" y="-634" width="120" height="50" as="geometry" />
        </mxCell>
        <mxCell id="Sd4QSS0tqCg5DmefgEI3-103" value="" style="edgeStyle=orthogonalEdgeStyle;rounded=0;orthogonalLoop=1;jettySize=auto;html=1;" edge="1" parent="1" source="Sd4QSS0tqCg5DmefgEI3-102" target="Sd4QSS0tqCg5DmefgEI3-100">
          <mxGeometry relative="1" as="geometry" />
        </mxCell>
        <mxCell id="Sd4QSS0tqCg5DmefgEI3-102" value="&lt;div&gt;008129&lt;/div&gt;&lt;div&gt;Rcvd_ACP2_Mill,&lt;/div&gt;&lt;div&gt;Disable Active&lt;br&gt;&lt;/div&gt;" style="rounded=0;whiteSpace=wrap;html=1;fillColor=#d5e8d4;strokeColor=#82b366;" vertex="1" parent="1">
          <mxGeometry x="-1350" y="-634" width="120" height="50" as="geometry" />
        </mxCell>
        <mxCell id="Sd4QSS0tqCg5DmefgEI3-105" style="edgeStyle=orthogonalEdgeStyle;rounded=0;orthogonalLoop=1;jettySize=auto;html=1;exitX=1;exitY=0.5;exitDx=0;exitDy=0;entryX=0;entryY=0.5;entryDx=0;entryDy=0;" edge="1" parent="1" source="Sd4QSS0tqCg5DmefgEI3-104" target="Sd4QSS0tqCg5DmefgEI3-102">
          <mxGeometry relative="1" as="geometry" />
        </mxCell>
        <mxCell id="Sd4QSS0tqCg5DmefgEI3-104" value="&lt;div&gt;014342&lt;/div&gt;&lt;div&gt;AlPrd61410200&lt;/div&gt;&lt;div&gt;Allowed production Silo (OK outlet)&lt;br&gt;&lt;/div&gt;" style="rounded=0;whiteSpace=wrap;html=1;fillColor=#d5e8d4;strokeColor=#82b366;" vertex="1" parent="1">
          <mxGeometry x="-1500" y="-634" width="120" height="50" as="geometry" />
        </mxCell>
        <mxCell id="Sd4QSS0tqCg5DmefgEI3-107" style="edgeStyle=orthogonalEdgeStyle;rounded=0;orthogonalLoop=1;jettySize=auto;html=1;exitX=0.5;exitY=1;exitDx=0;exitDy=0;" edge="1" parent="1" source="Sd4QSS0tqCg5DmefgEI3-106" target="Sd4QSS0tqCg5DmefgEI3-90">
          <mxGeometry relative="1" as="geometry" />
        </mxCell>
        <mxCell id="Sd4QSS0tqCg5DmefgEI3-106" value="&lt;div&gt;014392&lt;/div&gt;&lt;div&gt;SupplyStopped&lt;/div&gt;" style="rounded=1;whiteSpace=wrap;html=1;fillColor=#d5e8d4;strokeColor=#82b366;" vertex="1" parent="1">
          <mxGeometry x="-780" y="-740" width="120" height="50" as="geometry" />
        </mxCell>
        <mxCell id="Sd4QSS0tqCg5DmefgEI3-109" style="edgeStyle=orthogonalEdgeStyle;rounded=0;orthogonalLoop=1;jettySize=auto;html=1;exitX=1;exitY=0.5;exitDx=0;exitDy=0;entryX=0;entryY=0.5;entryDx=0;entryDy=0;" edge="1" parent="1" source="Sd4QSS0tqCg5DmefgEI3-108" target="Sd4QSS0tqCg5DmefgEI3-106">
          <mxGeometry relative="1" as="geometry" />
        </mxCell>
        <mxCell id="Sd4QSS0tqCg5DmefgEI3-108" value="&lt;div&gt;timer&lt;/div&gt;&lt;div&gt;4 sec&lt;br&gt;&lt;/div&gt;" style="rounded=0;whiteSpace=wrap;html=1;fillColor=#dae8fc;strokeColor=#6c8ebf;" vertex="1" parent="1">
          <mxGeometry x="-860" y="-740" width="50" height="50" as="geometry" />
        </mxCell>
        <mxCell id="Sd4QSS0tqCg5DmefgEI3-111" style="edgeStyle=orthogonalEdgeStyle;rounded=0;orthogonalLoop=1;jettySize=auto;html=1;exitX=1;exitY=0.5;exitDx=0;exitDy=0;entryX=0;entryY=0.5;entryDx=0;entryDy=0;" edge="1" parent="1" source="Sd4QSS0tqCg5DmefgEI3-110" target="Sd4QSS0tqCg5DmefgEI3-108">
          <mxGeometry relative="1" as="geometry" />
        </mxCell>
        <mxCell id="Sd4QSS0tqCg5DmefgEI3-110" value="&lt;div&gt;010035&lt;/div&gt;&lt;div&gt;MCSt61410402&lt;/div&gt;&lt;div&gt;Start, blower room, compressed air&lt;br&gt;&lt;/div&gt;" style="rounded=0;whiteSpace=wrap;html=1;fillColor=#f8cecc;strokeColor=#b85450;" vertex="1" parent="1">
          <mxGeometry x="-1020" y="-760" width="120" height="50" as="geometry" />
        </mxCell>
        <mxCell id="Sd4QSS0tqCg5DmefgEI3-114" style="edgeStyle=orthogonalEdgeStyle;rounded=0;orthogonalLoop=1;jettySize=auto;html=1;exitX=1;exitY=0.5;exitDx=0;exitDy=0;entryX=0;entryY=0.75;entryDx=0;entryDy=0;" edge="1" parent="1" source="Sd4QSS0tqCg5DmefgEI3-112" target="Sd4QSS0tqCg5DmefgEI3-108">
          <mxGeometry relative="1" as="geometry" />
        </mxCell>
        <mxCell id="Sd4QSS0tqCg5DmefgEI3-112" value="014382" style="rounded=0;whiteSpace=wrap;html=1;fillColor=#d5e8d4;strokeColor=#82b366;" vertex="1" parent="1">
          <mxGeometry x="-1020" y="-700" width="120" height="50" as="geometry" />
        </mxCell>
        <mxCell id="Sd4QSS0tqCg5DmefgEI3-116" style="edgeStyle=orthogonalEdgeStyle;rounded=0;orthogonalLoop=1;jettySize=auto;html=1;exitX=1;exitY=0.5;exitDx=0;exitDy=0;entryX=0;entryY=0.5;entryDx=0;entryDy=0;" edge="1" parent="1" source="Sd4QSS0tqCg5DmefgEI3-115" target="Sd4QSS0tqCg5DmefgEI3-110">
          <mxGeometry relative="1" as="geometry" />
        </mxCell>
        <mxCell id="Sd4QSS0tqCg5DmefgEI3-115" value="&lt;div&gt;016856&lt;/div&gt;&lt;div&gt;VFCl61410412&lt;/div&gt;&lt;div&gt;FB Close,&lt;/div&gt;&lt;div&gt;Blower room, valve&lt;br&gt;&lt;/div&gt;" style="rounded=0;whiteSpace=wrap;html=1;fillColor=#d5e8d4;strokeColor=#82b366;" vertex="1" parent="1">
          <mxGeometry x="-1170" y="-760" width="120" height="50" as="geometry" />
        </mxCell>
        <mxCell id="Sd4QSS0tqCg5DmefgEI3-118" style="edgeStyle=orthogonalEdgeStyle;rounded=0;orthogonalLoop=1;jettySize=auto;html=1;exitX=1;exitY=0.5;exitDx=0;exitDy=0;entryX=0;entryY=0.5;entryDx=0;entryDy=0;" edge="1" parent="1" source="Sd4QSS0tqCg5DmefgEI3-117" target="Sd4QSS0tqCg5DmefgEI3-115">
          <mxGeometry relative="1" as="geometry" />
        </mxCell>
        <mxCell id="Sd4QSS0tqCg5DmefgEI3-117" value="&lt;div&gt;010043&lt;/div&gt;&lt;div&gt;VCOp61410407&lt;/div&gt;&lt;div&gt;Open, Blower room&lt;/div&gt;&lt;div&gt;supply valve&lt;br&gt;&lt;/div&gt;" style="rounded=0;whiteSpace=wrap;html=1;fillColor=#d5e8d4;strokeColor=#82b366;" vertex="1" parent="1">
          <mxGeometry x="-1320" y="-760" width="120" height="50" as="geometry" />
        </mxCell>
        <mxCell id="Sd4QSS0tqCg5DmefgEI3-121" style="edgeStyle=orthogonalEdgeStyle;rounded=0;orthogonalLoop=1;jettySize=auto;html=1;" edge="1" parent="1" source="Sd4QSS0tqCg5DmefgEI3-120" target="Sd4QSS0tqCg5DmefgEI3-104">
          <mxGeometry relative="1" as="geometry" />
        </mxCell>
        <mxCell id="Sd4QSS0tqCg5DmefgEI3-120" value="&lt;div&gt;014342&lt;/div&gt;&lt;div&gt;AlPrd61410200&lt;/div&gt;&lt;div&gt;Allowed production Silo (OK outlet)&lt;br&gt;&lt;/div&gt;" style="rounded=1;whiteSpace=wrap;html=1;fillColor=#d5e8d4;strokeColor=#82b366;" vertex="1" parent="1">
          <mxGeometry x="-1610" y="-740" width="120" height="50" as="geometry" />
        </mxCell>
        <mxCell id="Sd4QSS0tqCg5DmefgEI3-125" style="edgeStyle=orthogonalEdgeStyle;rounded=0;orthogonalLoop=1;jettySize=auto;html=1;exitX=1;exitY=0.5;exitDx=0;exitDy=0;entryX=0;entryY=0.5;entryDx=0;entryDy=0;" edge="1" parent="1" source="Sd4QSS0tqCg5DmefgEI3-122" target="Sd4QSS0tqCg5DmefgEI3-120">
          <mxGeometry relative="1" as="geometry" />
        </mxCell>
        <mxCell id="Sd4QSS0tqCg5DmefgEI3-122" value="&lt;div&gt;002448&lt;/div&gt;&lt;div&gt;PLdMx61410411&lt;/div&gt;&lt;div&gt;Max Load level, pressure, blower 2&lt;br&gt;&lt;/div&gt;" style="rounded=0;whiteSpace=wrap;html=1;fillColor=#f8cecc;strokeColor=#b85450;" vertex="1" parent="1">
          <mxGeometry x="-1790" y="-690" width="120" height="50" as="geometry" />
        </mxCell>
        <mxCell id="Sd4QSS0tqCg5DmefgEI3-124" style="edgeStyle=orthogonalEdgeStyle;rounded=0;orthogonalLoop=1;jettySize=auto;html=1;exitX=1;exitY=0.5;exitDx=0;exitDy=0;" edge="1" parent="1" source="Sd4QSS0tqCg5DmefgEI3-123" target="Sd4QSS0tqCg5DmefgEI3-122">
          <mxGeometry relative="1" as="geometry" />
        </mxCell>
        <mxCell id="Sd4QSS0tqCg5DmefgEI3-123" value="&lt;div&gt;014342&lt;/div&gt;&lt;div&gt;AlPrd61410200&lt;/div&gt;&lt;div&gt;Allowed production Silo (OK outlet)&lt;br&gt;&lt;/div&gt;" style="rounded=0;whiteSpace=wrap;html=1;fillColor=#d5e8d4;strokeColor=#82b366;" vertex="1" parent="1">
          <mxGeometry x="-1940" y="-690" width="120" height="50" as="geometry" />
        </mxCell>
        <mxCell id="Sd4QSS0tqCg5DmefgEI3-129" style="edgeStyle=orthogonalEdgeStyle;rounded=0;orthogonalLoop=1;jettySize=auto;html=1;exitX=1;exitY=0.5;exitDx=0;exitDy=0;" edge="1" parent="1" source="Sd4QSS0tqCg5DmefgEI3-126" target="Sd4QSS0tqCg5DmefgEI3-127">
          <mxGeometry relative="1" as="geometry" />
        </mxCell>
        <mxCell id="Sd4QSS0tqCg5DmefgEI3-126" value="&lt;div&gt;002448&lt;/div&gt;&lt;div&gt;PLdMx61410411&lt;/div&gt;&lt;div&gt;Max Load level, pressure, blower 2&lt;br&gt;&lt;/div&gt;" style="rounded=0;whiteSpace=wrap;html=1;fillColor=#f8cecc;strokeColor=#b85450;" vertex="1" parent="1">
          <mxGeometry x="-1940" y="-760" width="120" height="50" as="geometry" />
        </mxCell>
        <mxCell id="Sd4QSS0tqCg5DmefgEI3-128" style="edgeStyle=orthogonalEdgeStyle;rounded=0;orthogonalLoop=1;jettySize=auto;html=1;exitX=1;exitY=0.5;exitDx=0;exitDy=0;entryX=0;entryY=0.5;entryDx=0;entryDy=0;" edge="1" parent="1" source="Sd4QSS0tqCg5DmefgEI3-127" target="Sd4QSS0tqCg5DmefgEI3-120">
          <mxGeometry relative="1" as="geometry" />
        </mxCell>
        <mxCell id="Sd4QSS0tqCg5DmefgEI3-127" value="&lt;div&gt;002449&lt;/div&gt;&lt;div&gt;PLdMn61410411&lt;/div&gt;&lt;div&gt;Min Load level, pressure, blower 2&lt;br&gt;&lt;/div&gt;" style="rounded=0;whiteSpace=wrap;html=1;fillColor=#d5e8d4;strokeColor=#82b366;" vertex="1" parent="1">
          <mxGeometry x="-1790" y="-760" width="120" height="50" as="geometry" />
        </mxCell>
        <mxCell id="Sd4QSS0tqCg5DmefgEI3-131" style="edgeStyle=orthogonalEdgeStyle;rounded=0;orthogonalLoop=1;jettySize=auto;html=1;exitX=1;exitY=0.75;exitDx=0;exitDy=0;" edge="1" parent="1" source="Sd4QSS0tqCg5DmefgEI3-130" target="Sd4QSS0tqCg5DmefgEI3-126">
          <mxGeometry relative="1" as="geometry" />
        </mxCell>
        <mxCell id="Sd4QSS0tqCg5DmefgEI3-132" style="edgeStyle=orthogonalEdgeStyle;rounded=0;orthogonalLoop=1;jettySize=auto;html=1;exitX=1;exitY=0.75;exitDx=0;exitDy=0;entryX=0;entryY=0.5;entryDx=0;entryDy=0;" edge="1" parent="1" source="Sd4QSS0tqCg5DmefgEI3-130" target="Sd4QSS0tqCg5DmefgEI3-123">
          <mxGeometry relative="1" as="geometry" />
        </mxCell>
        <mxCell id="Sd4QSS0tqCg5DmefgEI3-143" style="edgeStyle=orthogonalEdgeStyle;rounded=0;orthogonalLoop=1;jettySize=auto;html=1;exitX=1;exitY=0.5;exitDx=0;exitDy=0;entryX=0;entryY=0.5;entryDx=0;entryDy=0;" edge="1" parent="1" source="Sd4QSS0tqCg5DmefgEI3-130" target="Sd4QSS0tqCg5DmefgEI3-136">
          <mxGeometry relative="1" as="geometry" />
        </mxCell>
        <mxCell id="Sd4QSS0tqCg5DmefgEI3-144" style="edgeStyle=orthogonalEdgeStyle;rounded=0;orthogonalLoop=1;jettySize=auto;html=1;exitX=1;exitY=0.5;exitDx=0;exitDy=0;entryX=0;entryY=0.5;entryDx=0;entryDy=0;" edge="1" parent="1" source="Sd4QSS0tqCg5DmefgEI3-130" target="Sd4QSS0tqCg5DmefgEI3-134">
          <mxGeometry relative="1" as="geometry" />
        </mxCell>
        <mxCell id="Sd4QSS0tqCg5DmefgEI3-130" value="&lt;div&gt;004293&lt;/div&gt;&lt;div&gt;Stop61410000&lt;/div&gt;&lt;div&gt;Control signal stop&lt;br&gt;&lt;/div&gt;" style="rounded=0;whiteSpace=wrap;html=1;fillColor=#f8cecc;strokeColor=#b85450;" vertex="1" parent="1">
          <mxGeometry x="-2188" y="-800" width="120" height="50" as="geometry" />
        </mxCell>
        <mxCell id="Sd4QSS0tqCg5DmefgEI3-142" style="edgeStyle=orthogonalEdgeStyle;rounded=0;orthogonalLoop=1;jettySize=auto;html=1;exitX=1;exitY=0.5;exitDx=0;exitDy=0;entryX=0;entryY=0.5;entryDx=0;entryDy=0;" edge="1" parent="1" source="Sd4QSS0tqCg5DmefgEI3-133" target="Sd4QSS0tqCg5DmefgEI3-139">
          <mxGeometry relative="1" as="geometry" />
        </mxCell>
        <mxCell id="Sd4QSS0tqCg5DmefgEI3-133" value="&lt;div&gt;014341&lt;/div&gt;&lt;div&gt;AlSpl61410200&lt;/div&gt;&lt;div&gt;Allowed supply Silo (OK Inlet)&lt;br&gt;&lt;/div&gt;" style="rounded=0;whiteSpace=wrap;html=1;fillColor=#d5e8d4;strokeColor=#82b366;" vertex="1" parent="1">
          <mxGeometry x="-1790" y="-840" width="120" height="50" as="geometry" />
        </mxCell>
        <mxCell id="Sd4QSS0tqCg5DmefgEI3-135" style="edgeStyle=orthogonalEdgeStyle;rounded=0;orthogonalLoop=1;jettySize=auto;html=1;exitX=1;exitY=0.5;exitDx=0;exitDy=0;entryX=0;entryY=0.5;entryDx=0;entryDy=0;" edge="1" parent="1" source="Sd4QSS0tqCg5DmefgEI3-134" target="Sd4QSS0tqCg5DmefgEI3-133">
          <mxGeometry relative="1" as="geometry" />
        </mxCell>
        <mxCell id="Sd4QSS0tqCg5DmefgEI3-134" value="&lt;div&gt;014322&lt;/div&gt;&lt;div&gt;AcDis61410200&lt;/div&gt;&lt;div&gt;Disable, supply sugar from truck&lt;br&gt;&lt;/div&gt;" style="rounded=0;whiteSpace=wrap;html=1;fillColor=#f8cecc;strokeColor=#b85450;" vertex="1" parent="1">
          <mxGeometry x="-1940" y="-840" width="120" height="50" as="geometry" />
        </mxCell>
        <mxCell id="Sd4QSS0tqCg5DmefgEI3-141" style="edgeStyle=orthogonalEdgeStyle;rounded=0;orthogonalLoop=1;jettySize=auto;html=1;exitX=1;exitY=0.5;exitDx=0;exitDy=0;entryX=0;entryY=0.5;entryDx=0;entryDy=0;" edge="1" parent="1" source="Sd4QSS0tqCg5DmefgEI3-136" target="Sd4QSS0tqCg5DmefgEI3-137">
          <mxGeometry relative="1" as="geometry" />
        </mxCell>
        <mxCell id="Sd4QSS0tqCg5DmefgEI3-136" value="&lt;div&gt;014322&lt;/div&gt;&lt;div&gt;AcDis61410200&lt;/div&gt;&lt;div&gt;Disable, supply sugar from truck&lt;br&gt;&lt;/div&gt;" style="rounded=0;whiteSpace=wrap;html=1;fillColor=#f8cecc;strokeColor=#b85450;" vertex="1" parent="1">
          <mxGeometry x="-1940" y="-910" width="120" height="50" as="geometry" />
        </mxCell>
        <mxCell id="Sd4QSS0tqCg5DmefgEI3-140" style="edgeStyle=orthogonalEdgeStyle;rounded=0;orthogonalLoop=1;jettySize=auto;html=1;exitX=1;exitY=0.5;exitDx=0;exitDy=0;entryX=0;entryY=0.5;entryDx=0;entryDy=0;" edge="1" parent="1" source="Sd4QSS0tqCg5DmefgEI3-137" target="Sd4QSS0tqCg5DmefgEI3-139">
          <mxGeometry relative="1" as="geometry" />
        </mxCell>
        <mxCell id="Sd4QSS0tqCg5DmefgEI3-137" value="&lt;div&gt;016916&lt;/div&gt;&lt;div&gt;LoLs61410225&lt;/div&gt;&lt;div&gt;Low level&lt;br&gt;&lt;/div&gt;" style="rounded=0;whiteSpace=wrap;html=1;fillColor=#d5e8d4;strokeColor=#82b366;" vertex="1" parent="1">
          <mxGeometry x="-1790" y="-910" width="120" height="50" as="geometry" />
        </mxCell>
        <mxCell id="Sd4QSS0tqCg5DmefgEI3-139" value="&lt;div&gt;014341&lt;/div&gt;&lt;div&gt;AlSpl61410200&lt;/div&gt;&lt;div&gt;Allowed supply Silo (OK Inlet)&lt;br&gt;&lt;/div&gt;" style="rounded=1;whiteSpace=wrap;html=1;fillColor=#d5e8d4;strokeColor=#82b366;" vertex="1" parent="1">
          <mxGeometry x="-1620" y="-890" width="120" height="50" as="geometry" />
        </mxCell>
        <mxCell id="Sd4QSS0tqCg5DmefgEI3-147" style="edgeStyle=orthogonalEdgeStyle;rounded=0;orthogonalLoop=1;jettySize=auto;html=1;exitX=0.5;exitY=1;exitDx=0;exitDy=0;entryX=0;entryY=0.5;entryDx=0;entryDy=0;" edge="1" parent="1" source="Sd4QSS0tqCg5DmefgEI3-146" target="Sd4QSS0tqCg5DmefgEI3-33">
          <mxGeometry relative="1" as="geometry" />
        </mxCell>
        <mxCell id="Sd4QSS0tqCg5DmefgEI3-146" value="jrj" style="rounded=1;whiteSpace=wrap;html=1;fillColor=#d5e8d4;strokeColor=#82b366;" vertex="1" parent="1">
          <mxGeometry x="-400" y="-210" width="120" height="50" as="geometry" />
        </mxCell>
        <mxCell id="Sd4QSS0tqCg5DmefgEI3-149" style="edgeStyle=orthogonalEdgeStyle;rounded=0;orthogonalLoop=1;jettySize=auto;html=1;exitX=1;exitY=0.5;exitDx=0;exitDy=0;entryX=0;entryY=0.5;entryDx=0;entryDy=0;" edge="1" parent="1" source="Sd4QSS0tqCg5DmefgEI3-148" target="Sd4QSS0tqCg5DmefgEI3-146">
          <mxGeometry relative="1" as="geometry" />
        </mxCell>
        <mxCell id="Sd4QSS0tqCg5DmefgEI3-148" value="&lt;div&gt;timer&lt;/div&gt;&lt;div&gt;30 sec&lt;br&gt;&lt;/div&gt;" style="rounded=0;whiteSpace=wrap;html=1;fillColor=#dae8fc;strokeColor=#6c8ebf;" vertex="1" parent="1">
          <mxGeometry x="-470" y="-210" width="50" height="50" as="geometry" />
        </mxCell>
        <mxCell id="Sd4QSS0tqCg5DmefgEI3-150" value="&lt;div&gt;010335&lt;/div&gt;&lt;div&gt;MPSt61410402&lt;/div&gt;&lt;div&gt;Cond.auto, Blower room, Compressed air&lt;br&gt;&lt;/div&gt;" style="rounded=0;whiteSpace=wrap;html=1;fillColor=#d5e8d4;strokeColor=#82b366;" vertex="1" parent="1">
          <mxGeometry x="-800" y="-280" width="120" height="50" as="geometry" />
        </mxCell>
        <mxCell id="Sd4QSS0tqCg5DmefgEI3-152" style="edgeStyle=orthogonalEdgeStyle;rounded=0;orthogonalLoop=1;jettySize=auto;html=1;exitX=1;exitY=0.5;exitDx=0;exitDy=0;entryX=0;entryY=0.5;entryDx=0;entryDy=0;" edge="1" parent="1" source="Sd4QSS0tqCg5DmefgEI3-151" target="Sd4QSS0tqCg5DmefgEI3-148">
          <mxGeometry relative="1" as="geometry" />
        </mxCell>
        <mxCell id="Sd4QSS0tqCg5DmefgEI3-151" value="&lt;div&gt;016854&lt;/div&gt;&lt;div&gt;VFCL31410407&lt;/div&gt;&lt;div&gt;FB Close,&lt;/div&gt;&lt;div&gt;Blower room, supply valve&lt;br&gt;&lt;/div&gt;" style="rounded=0;whiteSpace=wrap;html=1;fillColor=#d5e8d4;strokeColor=#82b366;" vertex="1" parent="1">
          <mxGeometry x="-650" y="-210" width="120" height="50" as="geometry" />
        </mxCell>
        <mxCell id="Sd4QSS0tqCg5DmefgEI3-154" style="edgeStyle=orthogonalEdgeStyle;rounded=0;orthogonalLoop=1;jettySize=auto;html=1;exitX=1;exitY=0.5;exitDx=0;exitDy=0;" edge="1" parent="1" source="Sd4QSS0tqCg5DmefgEI3-153" target="Sd4QSS0tqCg5DmefgEI3-151">
          <mxGeometry relative="1" as="geometry" />
        </mxCell>
        <mxCell id="Sd4QSS0tqCg5DmefgEI3-153" value="014382" style="rounded=0;whiteSpace=wrap;html=1;fillColor=#f8cecc;strokeColor=#b85450;" vertex="1" parent="1">
          <mxGeometry x="-800" y="-210" width="120" height="50" as="geometry" />
        </mxCell>
        <mxCell id="Sd4QSS0tqCg5DmefgEI3-157" style="edgeStyle=orthogonalEdgeStyle;rounded=0;orthogonalLoop=1;jettySize=auto;html=1;exitX=1;exitY=0.5;exitDx=0;exitDy=0;" edge="1" parent="1" source="Sd4QSS0tqCg5DmefgEI3-156" target="Sd4QSS0tqCg5DmefgEI3-153">
          <mxGeometry relative="1" as="geometry" />
        </mxCell>
        <mxCell id="Sd4QSS0tqCg5DmefgEI3-156" value="&lt;div&gt;016855&lt;/div&gt;&lt;div&gt;VFOp61410412&lt;/div&gt;&lt;div&gt;FB Open, Blower room, valve&lt;br&gt;&lt;/div&gt;&lt;div&gt;&lt;br&gt;&lt;/div&gt;" style="rounded=0;whiteSpace=wrap;html=1;fillColor=#d5e8d4;strokeColor=#82b366;" vertex="1" parent="1">
          <mxGeometry x="-947" y="-210" width="120" height="50" as="geometry" />
        </mxCell>
        <mxCell id="Sd4QSS0tqCg5DmefgEI3-163" style="edgeStyle=orthogonalEdgeStyle;rounded=0;orthogonalLoop=1;jettySize=auto;html=1;exitX=1;exitY=0.5;exitDx=0;exitDy=0;" edge="1" parent="1" source="Sd4QSS0tqCg5DmefgEI3-159" target="Sd4QSS0tqCg5DmefgEI3-156">
          <mxGeometry relative="1" as="geometry" />
        </mxCell>
        <mxCell id="Sd4QSS0tqCg5DmefgEI3-165" style="edgeStyle=orthogonalEdgeStyle;rounded=0;orthogonalLoop=1;jettySize=auto;html=1;exitX=0.5;exitY=1;exitDx=0;exitDy=0;entryX=0.5;entryY=1;entryDx=0;entryDy=0;fillColor=#f5f5f5;strokeColor=#666666;" edge="1" parent="1" source="Sd4QSS0tqCg5DmefgEI3-159" target="Sd4QSS0tqCg5DmefgEI3-35">
          <mxGeometry relative="1" as="geometry">
            <Array as="points">
              <mxPoint x="-1050" y="-20" />
              <mxPoint x="130" y="-20" />
            </Array>
          </mxGeometry>
        </mxCell>
        <mxCell id="Sd4QSS0tqCg5DmefgEI3-159" value="&lt;div&gt;010035&lt;/div&gt;&lt;div&gt;MCSt61410402&lt;/div&gt;&lt;div&gt;Start, Blower room, compressed air&lt;br&gt;&lt;/div&gt;" style="rounded=0;whiteSpace=wrap;html=1;fillColor=#d5e8d4;strokeColor=#82b366;" vertex="1" parent="1">
          <mxGeometry x="-1110" y="-210" width="120" height="50" as="geometry" />
        </mxCell>
        <mxCell id="Sd4QSS0tqCg5DmefgEI3-167" style="edgeStyle=orthogonalEdgeStyle;rounded=0;orthogonalLoop=1;jettySize=auto;html=1;exitX=1;exitY=0.5;exitDx=0;exitDy=0;entryX=0;entryY=0.5;entryDx=0;entryDy=0;" edge="1" parent="1" source="Sd4QSS0tqCg5DmefgEI3-164" target="Sd4QSS0tqCg5DmefgEI3-159">
          <mxGeometry relative="1" as="geometry" />
        </mxCell>
        <mxCell id="Sd4QSS0tqCg5DmefgEI3-164" value="&lt;div&gt;014374&lt;/div&gt;StartFilling_6141_o" style="rounded=0;whiteSpace=wrap;html=1;fillColor=#d5e8d4;strokeColor=#82b366;" vertex="1" parent="1">
          <mxGeometry x="-1260" y="-210" width="120" height="50" as="geometry" />
        </mxCell>
        <mxCell id="Sd4QSS0tqCg5DmefgEI3-184" style="edgeStyle=orthogonalEdgeStyle;rounded=0;orthogonalLoop=1;jettySize=auto;html=1;exitX=0.25;exitY=1;exitDx=0;exitDy=0;entryX=0.44;entryY=0.995;entryDx=0;entryDy=0;entryPerimeter=0;fillColor=#fff2cc;strokeColor=#d6b656;" edge="1" parent="1" source="Sd4QSS0tqCg5DmefgEI3-168" target="Sd4QSS0tqCg5DmefgEI3-175">
          <mxGeometry relative="1" as="geometry">
            <Array as="points">
              <mxPoint x="-1070" y="-260" />
              <mxPoint x="-1517" y="-260" />
            </Array>
          </mxGeometry>
        </mxCell>
        <mxCell id="Sd4QSS0tqCg5DmefgEI3-218" style="edgeStyle=orthogonalEdgeStyle;rounded=0;orthogonalLoop=1;jettySize=auto;html=1;exitX=1;exitY=0.5;exitDx=0;exitDy=0;entryX=0.25;entryY=1;entryDx=0;entryDy=0;" edge="1" parent="1" source="Sd4QSS0tqCg5DmefgEI3-168" target="Sd4QSS0tqCg5DmefgEI3-58">
          <mxGeometry relative="1" as="geometry" />
        </mxCell>
        <mxCell id="Sd4QSS0tqCg5DmefgEI3-168" value="&lt;div&gt;014374&lt;/div&gt;StartFilling_6141_o" style="rounded=1;whiteSpace=wrap;html=1;fillColor=#d5e8d4;strokeColor=#82b366;" vertex="1" parent="1">
          <mxGeometry x="-1100" y="-390" width="120" height="50" as="geometry" />
        </mxCell>
        <mxCell id="Sd4QSS0tqCg5DmefgEI3-182" style="edgeStyle=orthogonalEdgeStyle;rounded=0;orthogonalLoop=1;jettySize=auto;html=1;exitX=1;exitY=0.5;exitDx=0;exitDy=0;" edge="1" parent="1" source="Sd4QSS0tqCg5DmefgEI3-173" target="Sd4QSS0tqCg5DmefgEI3-168">
          <mxGeometry relative="1" as="geometry" />
        </mxCell>
        <mxCell id="Sd4QSS0tqCg5DmefgEI3-173" value="&lt;div&gt;|P|&lt;br&gt;&lt;/div&gt;&lt;div&gt;014325&lt;/div&gt;&lt;div&gt;AcMill61410300&lt;/div&gt;&lt;div&gt;Select Mill, supply sugar from Silo&lt;br&gt;&lt;/div&gt;" style="rounded=0;whiteSpace=wrap;html=1;fillColor=#d5e8d4;strokeColor=#82b366;" vertex="1" parent="1">
          <mxGeometry x="-1570" y="-390" width="120" height="50" as="geometry" />
        </mxCell>
        <mxCell id="Sd4QSS0tqCg5DmefgEI3-177" style="edgeStyle=orthogonalEdgeStyle;rounded=0;orthogonalLoop=1;jettySize=auto;html=1;exitX=1;exitY=0.5;exitDx=0;exitDy=0;" edge="1" parent="1" source="Sd4QSS0tqCg5DmefgEI3-175" target="Sd4QSS0tqCg5DmefgEI3-176">
          <mxGeometry relative="1" as="geometry" />
        </mxCell>
        <mxCell id="Sd4QSS0tqCg5DmefgEI3-219" style="edgeStyle=orthogonalEdgeStyle;rounded=0;orthogonalLoop=1;jettySize=auto;html=1;fillColor=#fff2cc;strokeColor=#d6b656;exitX=0.25;exitY=1;exitDx=0;exitDy=0;" edge="1" parent="1" source="Sd4QSS0tqCg5DmefgEI3-168" target="Sd4QSS0tqCg5DmefgEI3-214">
          <mxGeometry relative="1" as="geometry">
            <mxPoint x="-1190" y="-20" as="sourcePoint" />
            <Array as="points">
              <mxPoint x="-1070" y="-260" />
              <mxPoint x="-2500" y="-260" />
            </Array>
          </mxGeometry>
        </mxCell>
        <mxCell id="Sd4QSS0tqCg5DmefgEI3-175" value="&#xa;&lt;div&gt;014374&lt;/div&gt;StartFilling_6141_o&#xa;&#xa;" style="rounded=0;whiteSpace=wrap;html=1;fillColor=#d5e8d4;strokeColor=#82b366;" vertex="1" parent="1">
          <mxGeometry x="-1570" y="-320" width="120" height="50" as="geometry" />
        </mxCell>
        <mxCell id="Sd4QSS0tqCg5DmefgEI3-180" style="edgeStyle=orthogonalEdgeStyle;rounded=0;orthogonalLoop=1;jettySize=auto;html=1;exitX=1;exitY=0.5;exitDx=0;exitDy=0;" edge="1" parent="1" source="Sd4QSS0tqCg5DmefgEI3-176" target="Sd4QSS0tqCg5DmefgEI3-178">
          <mxGeometry relative="1" as="geometry" />
        </mxCell>
        <mxCell id="Sd4QSS0tqCg5DmefgEI3-185" style="edgeStyle=orthogonalEdgeStyle;rounded=0;orthogonalLoop=1;jettySize=auto;html=1;entryX=0.25;entryY=1;entryDx=0;entryDy=0;fillColor=#e1d5e7;strokeColor=#9673a6;exitX=0.5;exitY=0;exitDx=0;exitDy=0;" edge="1" parent="1" source="Sd4QSS0tqCg5DmefgEI3-176" target="Sd4QSS0tqCg5DmefgEI3-94">
          <mxGeometry relative="1" as="geometry">
            <mxPoint x="-1300" y="-420" as="sourcePoint" />
            <Array as="points">
              <mxPoint x="-1360" y="-520" />
              <mxPoint x="-850" y="-520" />
            </Array>
          </mxGeometry>
        </mxCell>
        <mxCell id="Sd4QSS0tqCg5DmefgEI3-176" value="&lt;div&gt;014325&lt;/div&gt;&lt;div&gt;AcMill61410300&lt;/div&gt;&lt;div&gt;Select Mill, supply sugar from Silo&lt;br&gt;&lt;/div&gt;" style="rounded=0;whiteSpace=wrap;html=1;fillColor=#d5e8d4;strokeColor=#82b366;" vertex="1" parent="1">
          <mxGeometry x="-1420" y="-320" width="120" height="50" as="geometry" />
        </mxCell>
        <mxCell id="Sd4QSS0tqCg5DmefgEI3-183" style="edgeStyle=orthogonalEdgeStyle;rounded=0;orthogonalLoop=1;jettySize=auto;html=1;exitX=1;exitY=0.5;exitDx=0;exitDy=0;entryX=0;entryY=0.75;entryDx=0;entryDy=0;" edge="1" parent="1" source="Sd4QSS0tqCg5DmefgEI3-178" target="Sd4QSS0tqCg5DmefgEI3-168">
          <mxGeometry relative="1" as="geometry" />
        </mxCell>
        <mxCell id="Sd4QSS0tqCg5DmefgEI3-206" style="edgeStyle=orthogonalEdgeStyle;rounded=0;orthogonalLoop=1;jettySize=auto;html=1;exitX=0.5;exitY=1;exitDx=0;exitDy=0;entryX=0.5;entryY=0;entryDx=0;entryDy=0;fillColor=#d5e8d4;strokeColor=#82b366;" edge="1" parent="1" source="Sd4QSS0tqCg5DmefgEI3-178" target="Sd4QSS0tqCg5DmefgEI3-192">
          <mxGeometry relative="1" as="geometry">
            <Array as="points">
              <mxPoint x="-1200" y="-250" />
              <mxPoint x="-1310" y="-250" />
              <mxPoint x="-1310" y="-160" />
              <mxPoint x="-1960" y="-160" />
            </Array>
          </mxGeometry>
        </mxCell>
        <mxCell id="Sd4QSS0tqCg5DmefgEI3-178" value="&lt;div&gt;014375&lt;/div&gt;&lt;div&gt;Select Mill, supply sugar from silo&lt;br&gt;&lt;/div&gt;" style="rounded=0;whiteSpace=wrap;html=1;fillColor=#f8cecc;strokeColor=#b85450;" vertex="1" parent="1">
          <mxGeometry x="-1260" y="-320" width="120" height="50" as="geometry" />
        </mxCell>
        <mxCell id="Sd4QSS0tqCg5DmefgEI3-187" style="edgeStyle=orthogonalEdgeStyle;rounded=0;orthogonalLoop=1;jettySize=auto;html=1;exitX=1;exitY=0.5;exitDx=0;exitDy=0;fillColor=#e1d5e7;strokeColor=#9673a6;" edge="1" parent="1" source="Sd4QSS0tqCg5DmefgEI3-186" target="Sd4QSS0tqCg5DmefgEI3-176">
          <mxGeometry relative="1" as="geometry" />
        </mxCell>
        <mxCell id="Sd4QSS0tqCg5DmefgEI3-186" value="&lt;div&gt;014325&lt;/div&gt;&lt;div&gt;AcMill61410300&lt;/div&gt;&lt;div&gt;Select Mill, supply sugar from Silo&lt;br&gt;&lt;/div&gt;" style="rounded=1;whiteSpace=wrap;html=1;fillColor=#d5e8d4;strokeColor=#82b366;" vertex="1" parent="1">
          <mxGeometry x="-1550" y="-230" width="120" height="50" as="geometry" />
        </mxCell>
        <mxCell id="Sd4QSS0tqCg5DmefgEI3-189" style="edgeStyle=orthogonalEdgeStyle;rounded=0;orthogonalLoop=1;jettySize=auto;html=1;exitX=1;exitY=0.5;exitDx=0;exitDy=0;" edge="1" parent="1" source="Sd4QSS0tqCg5DmefgEI3-188" target="Sd4QSS0tqCg5DmefgEI3-186">
          <mxGeometry relative="1" as="geometry" />
        </mxCell>
        <mxCell id="Sd4QSS0tqCg5DmefgEI3-188" value="&lt;div&gt;014325&lt;/div&gt;&lt;div&gt;AcMill61410300&lt;/div&gt;&lt;div&gt;Select Mill, supply sugar from Silo&lt;br&gt;&lt;/div&gt;" style="rounded=0;whiteSpace=wrap;html=1;fillColor=#f8cecc;strokeColor=#b85450;" vertex="1" parent="1">
          <mxGeometry x="-1710" y="-230" width="120" height="50" as="geometry" />
        </mxCell>
        <mxCell id="Sd4QSS0tqCg5DmefgEI3-191" style="edgeStyle=orthogonalEdgeStyle;rounded=0;orthogonalLoop=1;jettySize=auto;html=1;exitX=1;exitY=0.5;exitDx=0;exitDy=0;entryX=0;entryY=0.5;entryDx=0;entryDy=0;" edge="1" parent="1" source="Sd4QSS0tqCg5DmefgEI3-190" target="Sd4QSS0tqCg5DmefgEI3-188">
          <mxGeometry relative="1" as="geometry" />
        </mxCell>
        <mxCell id="Sd4QSS0tqCg5DmefgEI3-190" value="&lt;div&gt;014335&lt;/div&gt;&lt;div&gt;OpMill61410300&lt;/div&gt;&lt;div&gt;Request select Mill,&lt;/div&gt;&lt;div&gt;supply sugar from Silo&lt;br&gt;&lt;/div&gt;" style="rounded=0;whiteSpace=wrap;html=1;fillColor=#d5e8d4;strokeColor=#82b366;" vertex="1" parent="1">
          <mxGeometry x="-1870" y="-230" width="120" height="50" as="geometry" />
        </mxCell>
        <mxCell id="Sd4QSS0tqCg5DmefgEI3-196" style="edgeStyle=orthogonalEdgeStyle;rounded=0;orthogonalLoop=1;jettySize=auto;html=1;exitX=1;exitY=0.5;exitDx=0;exitDy=0;entryX=0;entryY=0.5;entryDx=0;entryDy=0;" edge="1" parent="1" source="Sd4QSS0tqCg5DmefgEI3-192" target="Sd4QSS0tqCg5DmefgEI3-195">
          <mxGeometry relative="1" as="geometry" />
        </mxCell>
        <mxCell id="Sd4QSS0tqCg5DmefgEI3-192" value="&lt;div&gt;014375&lt;/div&gt;&lt;div&gt;Alarm_filling_6141_o&lt;br&gt;&lt;/div&gt;" style="rounded=0;whiteSpace=wrap;html=1;fillColor=#f8cecc;strokeColor=#b85450;" vertex="1" parent="1">
          <mxGeometry x="-2020" y="-130" width="120" height="50" as="geometry" />
        </mxCell>
        <mxCell id="Sd4QSS0tqCg5DmefgEI3-198" style="edgeStyle=orthogonalEdgeStyle;rounded=0;orthogonalLoop=1;jettySize=auto;html=1;exitX=1;exitY=0.5;exitDx=0;exitDy=0;" edge="1" parent="1" source="Sd4QSS0tqCg5DmefgEI3-195" target="Sd4QSS0tqCg5DmefgEI3-197">
          <mxGeometry relative="1" as="geometry" />
        </mxCell>
        <mxCell id="Sd4QSS0tqCg5DmefgEI3-195" value="&lt;div&gt;014335&lt;/div&gt;&lt;div&gt;OpMill61410300&lt;/div&gt;&lt;div&gt;Request select Mill,&lt;/div&gt;&lt;div&gt;supply sugar from Silo&lt;br&gt;&lt;/div&gt;" style="rounded=0;whiteSpace=wrap;html=1;fillColor=#f8cecc;strokeColor=#b85450;" vertex="1" parent="1">
          <mxGeometry x="-1870" y="-130" width="120" height="50" as="geometry" />
        </mxCell>
        <mxCell id="Sd4QSS0tqCg5DmefgEI3-199" style="edgeStyle=orthogonalEdgeStyle;rounded=0;orthogonalLoop=1;jettySize=auto;html=1;exitX=1;exitY=0.5;exitDx=0;exitDy=0;entryX=0;entryY=0.75;entryDx=0;entryDy=0;" edge="1" parent="1" source="Sd4QSS0tqCg5DmefgEI3-197" target="Sd4QSS0tqCg5DmefgEI3-186">
          <mxGeometry relative="1" as="geometry" />
        </mxCell>
        <mxCell id="Sd4QSS0tqCg5DmefgEI3-197" value="&lt;div&gt;014325&lt;/div&gt;&lt;div&gt;AcMill61410300&lt;/div&gt;&lt;div&gt;Select Mill, supply sugar from Silo&lt;br&gt;&lt;/div&gt;" style="rounded=0;whiteSpace=wrap;html=1;fillColor=#d5e8d4;strokeColor=#82b366;" vertex="1" parent="1">
          <mxGeometry x="-1710" y="-130" width="120" height="50" as="geometry" />
        </mxCell>
        <mxCell id="Sd4QSS0tqCg5DmefgEI3-201" style="edgeStyle=orthogonalEdgeStyle;rounded=0;orthogonalLoop=1;jettySize=auto;html=1;exitX=1;exitY=0.5;exitDx=0;exitDy=0;entryX=0;entryY=0.5;entryDx=0;entryDy=0;" edge="1" parent="1" source="Sd4QSS0tqCg5DmefgEI3-200" target="Sd4QSS0tqCg5DmefgEI3-190">
          <mxGeometry relative="1" as="geometry" />
        </mxCell>
        <mxCell id="Sd4QSS0tqCg5DmefgEI3-200" value="&lt;div&gt;014315&lt;/div&gt;&lt;div&gt;AlMill61410300&lt;/div&gt;&lt;div&gt;Allowed select Mill, supply sugar from silo&lt;br&gt;&lt;/div&gt;" style="rounded=0;whiteSpace=wrap;html=1;fillColor=#d5e8d4;strokeColor=#82b366;" vertex="1" parent="1">
          <mxGeometry x="-2020" y="-230" width="120" height="50" as="geometry" />
        </mxCell>
        <mxCell id="Sd4QSS0tqCg5DmefgEI3-203" style="edgeStyle=orthogonalEdgeStyle;rounded=0;orthogonalLoop=1;jettySize=auto;html=1;exitX=0.5;exitY=1;exitDx=0;exitDy=0;" edge="1" parent="1" source="Sd4QSS0tqCg5DmefgEI3-202" target="Sd4QSS0tqCg5DmefgEI3-200">
          <mxGeometry relative="1" as="geometry" />
        </mxCell>
        <mxCell id="Sd4QSS0tqCg5DmefgEI3-202" value="&lt;div&gt;014315&lt;/div&gt;&lt;div&gt;AlMill61410300&lt;/div&gt;&lt;div&gt;Allowed select Mill, supply sugar from silo&lt;br&gt;&lt;/div&gt;" style="rounded=1;whiteSpace=wrap;html=1;fillColor=#d5e8d4;strokeColor=#82b366;" vertex="1" parent="1">
          <mxGeometry x="-2090" y="-330" width="120" height="50" as="geometry" />
        </mxCell>
        <mxCell id="Sd4QSS0tqCg5DmefgEI3-205" style="edgeStyle=orthogonalEdgeStyle;rounded=0;orthogonalLoop=1;jettySize=auto;html=1;exitX=1;exitY=0.5;exitDx=0;exitDy=0;entryX=0;entryY=0.5;entryDx=0;entryDy=0;" edge="1" parent="1" source="Sd4QSS0tqCg5DmefgEI3-204" target="Sd4QSS0tqCg5DmefgEI3-202">
          <mxGeometry relative="1" as="geometry" />
        </mxCell>
        <mxCell id="Sd4QSS0tqCg5DmefgEI3-204" value="&lt;div&gt;008129&lt;/div&gt;&lt;div&gt;Rcvd_ACP2_Mill&lt;/div&gt;&lt;div&gt;Recived from Mill, Disable Active&lt;br&gt;&lt;/div&gt;" style="rounded=0;whiteSpace=wrap;html=1;fillColor=#d5e8d4;strokeColor=#82b366;" vertex="1" parent="1">
          <mxGeometry x="-2260" y="-330" width="120" height="50" as="geometry" />
        </mxCell>
        <mxCell id="Sd4QSS0tqCg5DmefgEI3-208" style="edgeStyle=orthogonalEdgeStyle;rounded=0;orthogonalLoop=1;jettySize=auto;html=1;exitX=1;exitY=0.5;exitDx=0;exitDy=0;entryX=0.5;entryY=0;entryDx=0;entryDy=0;fillColor=#d5e8d4;strokeColor=#82b366;" edge="1" parent="1" source="Sd4QSS0tqCg5DmefgEI3-207" target="Sd4QSS0tqCg5DmefgEI3-192">
          <mxGeometry relative="1" as="geometry" />
        </mxCell>
        <mxCell id="Sd4QSS0tqCg5DmefgEI3-207" value="&lt;div&gt;014375&lt;/div&gt;&lt;div&gt;Alarm_filling_6141_o&lt;br&gt;&lt;/div&gt;" style="rounded=1;whiteSpace=wrap;html=1;fillColor=#d5e8d4;strokeColor=#82b366;" vertex="1" parent="1">
          <mxGeometry x="-2200" y="-180" width="120" height="50" as="geometry" />
        </mxCell>
        <mxCell id="Sd4QSS0tqCg5DmefgEI3-210" style="edgeStyle=orthogonalEdgeStyle;rounded=0;orthogonalLoop=1;jettySize=auto;html=1;entryX=0;entryY=0.75;entryDx=0;entryDy=0;" edge="1" parent="1" source="Sd4QSS0tqCg5DmefgEI3-209" target="Sd4QSS0tqCg5DmefgEI3-207">
          <mxGeometry relative="1" as="geometry" />
        </mxCell>
        <mxCell id="Sd4QSS0tqCg5DmefgEI3-209" value="&lt;div&gt;012735&lt;/div&gt;&lt;div&gt;MACb61410402&lt;/div&gt;&lt;div&gt;Comb. alarm, blower room compressed air&lt;br&gt;&lt;/div&gt;" style="rounded=0;whiteSpace=wrap;html=1;fillColor=#d5e8d4;strokeColor=#82b366;" vertex="1" parent="1">
          <mxGeometry x="-2390" y="-90" width="120" height="50" as="geometry" />
        </mxCell>
        <mxCell id="Sd4QSS0tqCg5DmefgEI3-212" style="edgeStyle=orthogonalEdgeStyle;rounded=0;orthogonalLoop=1;jettySize=auto;html=1;exitX=1;exitY=0.5;exitDx=0;exitDy=0;entryX=0;entryY=0.25;entryDx=0;entryDy=0;" edge="1" parent="1" source="Sd4QSS0tqCg5DmefgEI3-211" target="Sd4QSS0tqCg5DmefgEI3-207">
          <mxGeometry relative="1" as="geometry" />
        </mxCell>
        <mxCell id="Sd4QSS0tqCg5DmefgEI3-211" value="&lt;div&gt;014378&lt;/div&gt;&lt;div&gt;PEHA61410411&lt;/div&gt;&lt;div&gt;Alarm Empty, High Pressure, Blower 1&lt;br&gt;&lt;/div&gt;" style="rounded=0;whiteSpace=wrap;html=1;fillColor=#d5e8d4;strokeColor=#82b366;" vertex="1" parent="1">
          <mxGeometry x="-2390" y="-230" width="120" height="50" as="geometry" />
        </mxCell>
        <mxCell id="Sd4QSS0tqCg5DmefgEI3-213" value="&lt;div&gt;014379&lt;/div&gt;&lt;div&gt;PELA61410411&lt;/div&gt;&lt;div&gt;Alarm Empty, Low Pressure, Blower 1&lt;br&gt;&lt;/div&gt;" style="rounded=0;whiteSpace=wrap;html=1;fillColor=#d5e8d4;strokeColor=#82b366;" vertex="1" parent="1">
          <mxGeometry x="-2390" y="-170" width="120" height="50" as="geometry" />
        </mxCell>
        <mxCell id="Sd4QSS0tqCg5DmefgEI3-215" style="edgeStyle=orthogonalEdgeStyle;rounded=0;orthogonalLoop=1;jettySize=auto;html=1;exitX=1;exitY=0.5;exitDx=0;exitDy=0;entryX=0;entryY=0.5;entryDx=0;entryDy=0;" edge="1" parent="1" source="Sd4QSS0tqCg5DmefgEI3-214" target="Sd4QSS0tqCg5DmefgEI3-211">
          <mxGeometry relative="1" as="geometry" />
        </mxCell>
        <mxCell id="Sd4QSS0tqCg5DmefgEI3-216" style="edgeStyle=orthogonalEdgeStyle;rounded=0;orthogonalLoop=1;jettySize=auto;html=1;exitX=1;exitY=0.5;exitDx=0;exitDy=0;entryX=0;entryY=0.5;entryDx=0;entryDy=0;" edge="1" parent="1" source="Sd4QSS0tqCg5DmefgEI3-214" target="Sd4QSS0tqCg5DmefgEI3-213">
          <mxGeometry relative="1" as="geometry" />
        </mxCell>
        <mxCell id="Sd4QSS0tqCg5DmefgEI3-217" style="edgeStyle=orthogonalEdgeStyle;rounded=0;orthogonalLoop=1;jettySize=auto;html=1;exitX=1;exitY=0.5;exitDx=0;exitDy=0;entryX=0;entryY=0.5;entryDx=0;entryDy=0;" edge="1" parent="1" source="Sd4QSS0tqCg5DmefgEI3-214" target="Sd4QSS0tqCg5DmefgEI3-209">
          <mxGeometry relative="1" as="geometry" />
        </mxCell>
        <mxCell id="Sd4QSS0tqCg5DmefgEI3-214" value="&lt;div&gt;014374&lt;/div&gt;StartFilling_6141_o" style="rounded=0;whiteSpace=wrap;html=1;fillColor=#d5e8d4;strokeColor=#82b366;" vertex="1" parent="1">
          <mxGeometry x="-2560" y="-230" width="120" height="50" as="geometry" />
        </mxCell>
      </root>
    </mxGraphModel>
  </diagram>
</mxfile>
